<svg xmlns="http://www.w3.org/2000/svg" viewBox="-285 268 1697 862" role="img" aria-labelledby="aig-api-titulo">
  <title id="aig-api-titulo">Activos Inmobiliarios Globales · Donde cada propiedad cuenta una historia</title>
  <defs><linearGradient id="aig-api-degradado-cuerpo" gradientUnits="userSpaceOnUse" x1="0" y1="272" x2="0" y2="927"><stop offset="0" stop-color="#F5515F"/><stop offset="1" stop-color="#A0051C"/></linearGradient><linearGradient id="aig-api-degradado-cintas" gradientUnits="userSpaceOnUse" x1="0" y1="272" x2="0" y2="776.33"><stop offset="0" stop-color="#F5515F"/><stop offset="1" stop-color="#A0051C"/></linearGradient></defs>
  <g class="aig-isotipo">
    <!-- 1. Cintas del techo (lado derecho): nacen en la cumbre y bajan. El canto negro es la cara lateral de la pierna izquierda. -->
    <g class="aig-cintas">
      <g class="aig-cinta aig-cinta-exterior">
        <path class="aig-franja aig-franja-exterior" fill="url(#aig-api-degradado-cintas)" d="M858.74 272H862.59L1141.61 775.99H1096.76L838.15 308.88Z"/>
        <path class="aig-canto aig-canto-exterior" fill="#000000" d="M858.74 272H862.59L885.21 312.85L862.69 353.2L838.15 308.88Z"/>
      </g>
      <g class="aig-cinta aig-cinta-interior">
        <path class="aig-franja aig-franja-interior" fill="url(#aig-api-degradado-cintas)" d="M820.49 340.52L1061.95 776.66H1015.45C914.88 776.66 879.72 728.45 859.47 691.87L742.4 480.41Z"/>
        <path class="aig-canto aig-canto-interior" fill="#000000" d="M820.49 340.52L844.86 384.55L766.77 524.44L742.4 480.41Z"/>
      </g>
    </g>
    <!-- 2. Estelas de velocidad, de arriba abajo. Las "pegadas" terminan escondidas detrás de la pierna izquierda. -->
    <g class="aig-estelas">
      <rect class="aig-estela aig-estela-pegada" data-banda="1" fill="url(#aig-api-degradado-cuerpo)" x="222.82" y="272" width="377.18" height="64.05" rx="32"/>
      <rect class="aig-estela aig-estela-suelta" data-banda="3" fill="url(#aig-api-degradado-cuerpo)" x="57" y="399.5" width="231.94" height="64" rx="32"/>
      <rect class="aig-estela aig-estela-pegada" data-banda="3" fill="url(#aig-api-degradado-cuerpo)" x="323.05" y="400.1" width="156.95" height="64.05" rx="32"/>
      <rect class="aig-estela aig-estela-suelta" data-banda="5" fill="url(#aig-api-degradado-cuerpo)" x="123.07" y="526.12" width="124.62" height="64" rx="32"/>
      <rect class="aig-estela aig-estela-pegada" data-banda="5" fill="url(#aig-api-degradado-cuerpo)" x="281.07" y="528.2" width="198.93" height="64.05" rx="32"/>
    </g>
    <!-- 3. Pierna izquierda de la A, con las estelas en negativo recortadas. -->
    <path class="aig-pierna" fill="url(#aig-api-degradado-cuerpo)" fill-rule="evenodd" d="M500.29 272H860.24L578.56 776.6C543.58 839.26 473.33 927 319.3 927H185.64A29.86 29.86 0 0 1 159.57 882.37L285.76 656.3H468.06A32 32 0 0 0 468.06 592.25H321.52L357.27 528.2H405.42A32 32 0 0 0 405.42 464.15H393.03L428.78 400.1H547.82A32 32 0 0 0 547.82 336.05H464.54ZM525.03 462.91H634.54A32 32 0 0 1 634.54 526.91H525.03A32 32 0 0 1 525.03 462.91Z"/>
    <!-- 4. Ventana. -->
    <rect class="aig-ventana" fill="#000000" x="689.22" y="664.97" width="107.61" height="106.11"/>
  </g>
  <!-- 5. Nombre en Orbitron: la sombra marino va detrás y desplazada; delante, las letras con filo plateado. -->
  <g class="aig-nombre">
    <g class="aig-nombre-sombra" fill="#00264A" stroke="#00264A" stroke-width="2.42" stroke-linejoin="round" opacity="0.89" transform="translate(-2.02 2.42)">
      <g class="aig-palabra" data-palabra="ACTIVOS">
        <path class="aig-letra" data-letra="A" d="M-10.8 1033.5V1002.5Q-10.8 1000.6 -9.9 999Q-8.9 997.5 -7.4 996.5Q-5.8 995.6 -3.9 995.6H20.2Q22.1 995.6 23.7 996.5Q25.3 997.5 26.2 999Q27.1 1000.6 27.1 1002.5V1033.5H21.4V1020.2H-5.1V1033.5ZM-5.1 1014.6H21.4V1002.6Q21.4 1002.1 21 1001.7Q20.6 1001.3 20.1 1001.3H-3.8Q-4.3 1001.3 -4.7 1001.7Q-5.1 1002.1 -5.1 1002.6Z"/>
        <path class="aig-letra" data-letra="C" d="M43.7 1033.5Q41.8 1033.5 40.3 1032.6Q38.7 1031.7 37.8 1030.1Q36.9 1028.5 36.9 1026.7V1002.5Q36.9 1000.6 37.8 999Q38.7 997.5 40.3 996.5Q41.8 995.6 43.7 995.6H74.7V1001.3H44.5Q43.7 1001.3 43.1 1001.9Q42.6 1002.4 42.6 1003.3V1025.9Q42.6 1026.7 43.1 1027.3Q43.7 1027.8 44.5 1027.8H74.7V1033.5Z"/>
        <path class="aig-letra" data-letra="T" d="M96.9 1033.5V1001.3H80.8V995.6H118.7V1001.3H102.6V1033.5Z"/>
        <path class="aig-letra" data-letra="I" d="M127.1 1033.5V995.6H132.8V1033.5Z"/>
        <path class="aig-letra" data-letra="V" d="M163.9 1033.5 142 995.6H148.6L166.8 1027.1L184.8 995.6H191.4L169.6 1033.5Z"/>
        <path class="aig-letra" data-letra="O" d="M204.3 1033.5Q202.5 1033.5 200.9 1032.6Q199.3 1031.7 198.4 1030.1Q197.5 1028.5 197.5 1026.7V1002.5Q197.5 1000.6 198.4 999Q199.3 997.5 200.9 996.5Q202.5 995.6 204.3 995.6H228.5Q230.4 995.6 232 996.5Q233.5 997.5 234.4 999Q235.4 1000.6 235.4 1002.5V1026.7Q235.4 1028.5 234.4 1030.1Q233.5 1031.7 232 1032.6Q230.4 1033.5 228.5 1033.5ZM204.5 1027.8H228.3Q228.9 1027.8 229.3 1027.4Q229.7 1027 229.7 1026.5V1002.6Q229.7 1002.1 229.3 1001.7Q228.9 1001.3 228.3 1001.3H204.5Q203.9 1001.3 203.6 1001.7Q203.2 1002.1 203.2 1002.6V1026.5Q203.2 1027 203.6 1027.4Q203.9 1027.8 204.5 1027.8Z"/>
        <path class="aig-letra" data-letra="S" d="M251.6 1033.5Q249.7 1033.5 248.1 1032.6Q246.6 1031.7 245.7 1030.1Q244.7 1028.5 244.7 1026.7V1024.4H250.4V1026.5Q250.4 1027 250.8 1027.4Q251.2 1027.8 251.7 1027.8H275.6Q276.1 1027.8 276.5 1027.4Q276.9 1027 276.9 1026.5V1018.7Q276.9 1018.2 276.5 1017.8Q276.1 1017.4 275.6 1017.4H251.6Q249.7 1017.4 248.1 1016.5Q246.6 1015.6 245.7 1014Q244.7 1012.5 244.7 1010.6V1002.5Q244.7 1000.6 245.7 999Q246.6 997.5 248.1 996.5Q249.7 995.6 251.6 995.6H275.8Q277.6 995.6 279.2 996.5Q280.8 997.5 281.7 999Q282.6 1000.6 282.6 1002.5V1004.7H276.9V1002.6Q276.9 1002.1 276.5 1001.7Q276.1 1001.3 275.6 1001.3H251.7Q251.2 1001.3 250.8 1001.7Q250.4 1002.1 250.4 1002.6V1010.4Q250.4 1011 250.8 1011.3Q251.2 1011.7 251.7 1011.7H275.8Q277.6 1011.7 279.2 1012.6Q280.8 1013.6 281.7 1015.1Q282.6 1016.7 282.6 1018.5V1026.7Q282.6 1028.5 281.7 1030.1Q280.8 1031.7 279.2 1032.6Q277.6 1033.5 275.8 1033.5Z"/>
      </g>
      <g class="aig-palabra" data-palabra="INMOBILIARIOS">
        <path class="aig-letra" data-letra="I" d="M311 1033.5V995.6H316.7V1033.5Z"/>
        <path class="aig-letra" data-letra="N" d="M327.8 1033.5V995.6H334.6L360 1025.8V995.6H365.7V1033.5H358.9L333.5 1003.3V1033.5Z"/>
        <path class="aig-letra" data-letra="M" d="M375 1033.5V995.6H381.7L396.4 1013.1L411.1 995.6H417.9V1033.5H412.2V1003.2L396.4 1022L380.6 1003.3V1033.5Z"/>
        <path class="aig-letra" data-letra="O" d="M433.1 1033.5Q431.2 1033.5 429.6 1032.6Q428.1 1031.7 427.1 1030.1Q426.2 1028.5 426.2 1026.7V1002.5Q426.2 1000.6 427.1 999Q428.1 997.5 429.6 996.5Q431.2 995.6 433.1 995.6H457.3Q459.1 995.6 460.7 996.5Q462.3 997.5 463.2 999Q464.1 1000.6 464.1 1002.5V1026.7Q464.1 1028.5 463.2 1030.1Q462.3 1031.7 460.7 1032.6Q459.1 1033.5 457.3 1033.5ZM433.2 1027.8H457.1Q457.6 1027.8 458 1027.4Q458.4 1027 458.4 1026.5V1002.6Q458.4 1002.1 458 1001.7Q457.6 1001.3 457.1 1001.3H433.2Q432.7 1001.3 432.3 1001.7Q431.9 1002.1 431.9 1002.6V1026.5Q431.9 1027 432.3 1027.4Q432.7 1027.8 433.2 1027.8Z"/>
        <path class="aig-letra" data-letra="B" d="M473.8 1033.5V995.6H503.3Q505.2 995.6 506.7 996.5Q508.3 997.5 509.2 999Q510.2 1000.6 510.2 1002.5V1010.2Q510.2 1010.9 510 1011.6Q509.9 1012.2 509.6 1012.8Q510.6 1014.3 511.2 1015.6Q511.7 1016.9 511.7 1018.2V1026.7Q511.7 1028.6 510.8 1030.1Q509.9 1031.7 508.3 1032.6Q506.7 1033.5 504.8 1033.5ZM480.8 1027.8H504.7Q505.3 1027.8 505.6 1027.4Q506 1027 506 1026.5V1018.3Q506 1017.8 505.6 1017.4Q505.3 1017 504.7 1017H480.8Q480.3 1017 479.9 1017.4Q479.5 1017.8 479.5 1018.3V1026.5Q479.5 1027 479.9 1027.4Q480.3 1027.8 480.8 1027.8ZM480.8 1011.3H503.2Q503.7 1011.3 504 1011Q504.4 1010.6 504.4 1010V1002.6Q504.4 1002.1 504 1001.7Q503.7 1001.3 503.2 1001.3H480.8Q480.3 1001.3 479.9 1001.7Q479.5 1002.1 479.5 1002.6V1010Q479.5 1010.6 479.9 1011Q480.3 1011.3 480.8 1011.3Z"/>
        <path class="aig-letra" data-letra="I" d="M521.9 1033.5V995.6H527.6V1033.5Z"/>
        <path class="aig-letra" data-letra="L" d="M538.4 1033.5V995.6H544.1V1027.8H576.3V1033.5Z"/>
        <path class="aig-letra" data-letra="I" d="M583 1033.5V995.6H588.6V1033.5Z"/>
        <path class="aig-letra" data-letra="A" d="M600.3 1033.5V1002.5Q600.3 1000.6 601.2 999Q602.2 997.5 603.7 996.5Q605.3 995.6 607.2 995.6H631.3Q633.2 995.6 634.8 996.5Q636.4 997.5 637.3 999Q638.2 1000.6 638.2 1002.5V1033.5H632.5V1020.2H606V1033.5ZM606 1014.6H632.5V1002.6Q632.5 1002.1 632.1 1001.7Q631.7 1001.3 631.2 1001.3H607.3Q606.8 1001.3 606.4 1001.7Q606 1002.1 606 1002.6Z"/>
        <path class="aig-letra" data-letra="R" d="M677.8 1033.5 666.5 1020 652.4 1020V1033.5H646.7V995.7H677.7Q679.6 995.7 681.2 996.6Q682.8 997.6 683.7 999.1Q684.6 1000.7 684.6 1002.5V1013.1Q684.6 1015 683.7 1016.6Q682.8 1018.1 681.2 1019.1Q679.6 1020 677.7 1020H673.9L684.4 1032.5V1033.5ZM653.7 1014.2H677.6Q678.2 1014.2 678.5 1013.9Q678.9 1013.5 678.9 1013V1002.7Q678.9 1002.1 678.5 1001.7Q678.2 1001.4 677.6 1001.4H653.7Q653.2 1001.4 652.8 1001.7Q652.4 1002.1 652.4 1002.7V1013Q652.4 1013.5 652.8 1013.9Q653.2 1014.2 653.7 1014.2Z"/>
        <path class="aig-letra" data-letra="I" d="M694.2 1033.5V995.6H699.9V1033.5Z"/>
        <path class="aig-letra" data-letra="O" d="M717 1033.5Q715.1 1033.5 713.5 1032.6Q711.9 1031.7 711 1030.1Q710.1 1028.5 710.1 1026.7V1002.5Q710.1 1000.6 711 999Q711.9 997.5 713.5 996.5Q715.1 995.6 717 995.6H741.1Q743 995.6 744.6 996.5Q746.1 997.5 747.1 999Q748 1000.6 748 1002.5V1026.7Q748 1028.5 747.1 1030.1Q746.1 1031.7 744.6 1032.6Q743 1033.5 741.1 1033.5ZM717.1 1027.8H741Q741.5 1027.8 741.9 1027.4Q742.3 1027 742.3 1026.5V1002.6Q742.3 1002.1 741.9 1001.7Q741.5 1001.3 741 1001.3H717.1Q716.6 1001.3 716.2 1001.7Q715.8 1002.1 715.8 1002.6V1026.5Q715.8 1027 716.2 1027.4Q716.6 1027.8 717.1 1027.8Z"/>
        <path class="aig-letra" data-letra="S" d="M764.2 1033.5Q762.3 1033.5 760.8 1032.6Q759.2 1031.7 758.3 1030.1Q757.4 1028.5 757.4 1026.7V1024.4H763V1026.5Q763 1027 763.4 1027.4Q763.8 1027.8 764.3 1027.8H788.2Q788.8 1027.8 789.1 1027.4Q789.5 1027 789.5 1026.5V1018.7Q789.5 1018.2 789.1 1017.8Q788.8 1017.4 788.2 1017.4H764.2Q762.3 1017.4 760.8 1016.5Q759.2 1015.6 758.3 1014Q757.4 1012.5 757.4 1010.6V1002.5Q757.4 1000.6 758.3 999Q759.2 997.5 760.8 996.5Q762.3 995.6 764.2 995.6H788.4Q790.3 995.6 791.8 996.5Q793.4 997.5 794.3 999Q795.3 1000.6 795.3 1002.5V1004.7H789.5V1002.6Q789.5 1002.1 789.1 1001.7Q788.8 1001.3 788.2 1001.3H764.3Q763.8 1001.3 763.4 1001.7Q763 1002.1 763 1002.6V1010.4Q763 1011 763.4 1011.3Q763.8 1011.7 764.3 1011.7H788.4Q790.3 1011.7 791.8 1012.6Q793.4 1013.6 794.3 1015.1Q795.3 1016.7 795.3 1018.5V1026.7Q795.3 1028.5 794.3 1030.1Q793.4 1031.7 791.8 1032.6Q790.3 1033.5 788.4 1033.5Z"/>
      </g>
      <g class="aig-palabra" data-palabra="GLOBALES">
        <path class="aig-letra" data-letra="G" d="M830.2 1033.5Q828.3 1033.5 826.7 1032.6Q825.2 1031.7 824.3 1030.1Q823.3 1028.5 823.3 1026.7V1002.5Q823.3 1000.6 824.3 999Q825.2 997.5 826.7 996.5Q828.3 995.6 830.2 995.6H854.4Q856.2 995.6 857.8 996.5Q859.4 997.5 860.3 999Q861.2 1000.6 861.2 1002.5V1004.7H855.5V1002.6Q855.5 1002.1 855.1 1001.7Q854.7 1001.3 854.2 1001.3H830.3Q829.8 1001.3 829.4 1001.7Q829 1002.1 829 1002.6V1026.5Q829 1027 829.4 1027.4Q829.8 1027.8 830.3 1027.8H854.2Q854.7 1027.8 855.1 1027.4Q855.5 1027 855.5 1026.5V1018.5H846.6V1012.7H861.2V1026.7Q861.2 1028.5 860.3 1030.1Q859.4 1031.7 857.8 1032.6Q856.2 1033.5 854.4 1033.5Z"/>
        <path class="aig-letra" data-letra="L" d="M871.3 1033.5V995.6H876.9V1027.8H909.1V1033.5Z"/>
        <path class="aig-letra" data-letra="O" d="M921.9 1033.5Q920 1033.5 918.4 1032.6Q916.9 1031.7 916 1030.1Q915 1028.5 915 1026.7V1002.5Q915 1000.6 916 999Q916.9 997.5 918.4 996.5Q920 995.6 921.9 995.6H946.1Q948 995.6 949.5 996.5Q951.1 997.5 952 999Q952.9 1000.6 952.9 1002.5V1026.7Q952.9 1028.5 952 1030.1Q951.1 1031.7 949.5 1032.6Q948 1033.5 946.1 1033.5ZM922 1027.8H945.9Q946.4 1027.8 946.8 1027.4Q947.2 1027 947.2 1026.5V1002.6Q947.2 1002.1 946.8 1001.7Q946.4 1001.3 945.9 1001.3H922Q921.5 1001.3 921.1 1001.7Q920.7 1002.1 920.7 1002.6V1026.5Q920.7 1027 921.1 1027.4Q921.5 1027.8 922 1027.8Z"/>
        <path class="aig-letra" data-letra="B" d="M963.5 1033.5V995.6H993Q994.8 995.6 996.4 996.5Q998 997.5 998.9 999Q999.8 1000.6 999.8 1002.5V1010.2Q999.8 1010.9 999.7 1011.6Q999.5 1012.2 999.2 1012.8Q1000.3 1014.3 1000.8 1015.6Q1001.4 1016.9 1001.4 1018.2V1026.7Q1001.4 1028.6 1000.5 1030.1Q999.5 1031.7 998 1032.6Q996.4 1033.5 994.5 1033.5ZM970.5 1027.8H994.3Q994.9 1027.8 995.3 1027.4Q995.6 1027 995.6 1026.5V1018.3Q995.6 1017.8 995.3 1017.4Q994.9 1017 994.3 1017H970.5Q970 1017 969.6 1017.4Q969.2 1017.8 969.2 1018.3V1026.5Q969.2 1027 969.6 1027.4Q970 1027.8 970.5 1027.8ZM970.5 1011.3H992.8Q993.3 1011.3 993.7 1011Q994.1 1010.6 994.1 1010V1002.6Q994.1 1002.1 993.7 1001.7Q993.3 1001.3 992.8 1001.3H970.5Q970 1001.3 969.6 1001.7Q969.2 1002.1 969.2 1002.6V1010Q969.2 1010.6 969.6 1011Q970 1011.3 970.5 1011.3Z"/>
        <path class="aig-letra" data-letra="A" d="M1010.2 1033.5V1002.5Q1010.2 1000.6 1011.1 999Q1012 997.5 1013.6 996.5Q1015.1 995.6 1017 995.6H1041.2Q1043.1 995.6 1044.6 996.5Q1046.2 997.5 1047.1 999Q1048.1 1000.6 1048.1 1002.5V1033.5H1042.3V1020.2H1015.9V1033.5ZM1015.9 1014.6H1042.3V1002.6Q1042.3 1002.1 1042 1001.7Q1041.6 1001.3 1041 1001.3H1017.2Q1016.6 1001.3 1016.2 1001.7Q1015.9 1002.1 1015.9 1002.6Z"/>
        <path class="aig-letra" data-letra="L" d="M1058.3 1033.5V995.6H1064V1027.8H1096.2V1033.5Z"/>
        <path class="aig-letra" data-letra="E" d="M1101.9 1033.5V995.6H1136.6V1001.3H1107.6V1011.7H1130.9V1017.4H1107.6V1027.8H1136.6V1033.5Z"/>
        <path class="aig-letra" data-letra="S" d="M1152.5 1033.5Q1150.6 1033.5 1149.1 1032.6Q1147.5 1031.7 1146.6 1030.1Q1145.7 1028.5 1145.7 1026.7V1024.4H1151.3V1026.5Q1151.3 1027 1151.7 1027.4Q1152.1 1027.8 1152.7 1027.8H1176.5Q1177.1 1027.8 1177.4 1027.4Q1177.8 1027 1177.8 1026.5V1018.7Q1177.8 1018.2 1177.4 1017.8Q1177.1 1017.4 1176.5 1017.4H1152.5Q1150.6 1017.4 1149.1 1016.5Q1147.5 1015.6 1146.6 1014Q1145.7 1012.5 1145.7 1010.6V1002.5Q1145.7 1000.6 1146.6 999Q1147.5 997.5 1149.1 996.5Q1150.6 995.6 1152.5 995.6H1176.7Q1178.6 995.6 1180.1 996.5Q1181.7 997.5 1182.6 999Q1183.6 1000.6 1183.6 1002.5V1004.7H1177.8V1002.6Q1177.8 1002.1 1177.4 1001.7Q1177.1 1001.3 1176.5 1001.3H1152.7Q1152.1 1001.3 1151.7 1001.7Q1151.3 1002.1 1151.3 1002.6V1010.4Q1151.3 1011 1151.7 1011.3Q1152.1 1011.7 1152.7 1011.7H1176.7Q1178.6 1011.7 1180.1 1012.6Q1181.7 1013.6 1182.6 1015.1Q1183.6 1016.7 1183.6 1018.5V1026.7Q1183.6 1028.5 1182.6 1030.1Q1181.7 1031.7 1180.1 1032.6Q1178.6 1033.5 1176.7 1033.5Z"/>
      </g>
    </g>
    <g class="aig-nombre-letras" fill="#343434" stroke="#EDF0F5" stroke-width="2.42" stroke-linejoin="round" paint-order="stroke">
      <g class="aig-palabra" data-palabra="ACTIVOS">
        <path class="aig-letra" data-letra="A" d="M-10.8 1033.5V1002.5Q-10.8 1000.6 -9.9 999Q-8.9 997.5 -7.4 996.5Q-5.8 995.6 -3.9 995.6H20.2Q22.1 995.6 23.7 996.5Q25.3 997.5 26.2 999Q27.1 1000.6 27.1 1002.5V1033.5H21.4V1020.2H-5.1V1033.5ZM-5.1 1014.6H21.4V1002.6Q21.4 1002.1 21 1001.7Q20.6 1001.3 20.1 1001.3H-3.8Q-4.3 1001.3 -4.7 1001.7Q-5.1 1002.1 -5.1 1002.6Z"/>
        <path class="aig-letra" data-letra="C" d="M43.7 1033.5Q41.8 1033.5 40.3 1032.6Q38.7 1031.7 37.8 1030.1Q36.9 1028.5 36.9 1026.7V1002.5Q36.9 1000.6 37.8 999Q38.7 997.5 40.3 996.5Q41.8 995.6 43.7 995.6H74.7V1001.3H44.5Q43.7 1001.3 43.1 1001.9Q42.6 1002.4 42.6 1003.3V1025.9Q42.6 1026.7 43.1 1027.3Q43.7 1027.8 44.5 1027.8H74.7V1033.5Z"/>
        <path class="aig-letra" data-letra="T" d="M96.9 1033.5V1001.3H80.8V995.6H118.7V1001.3H102.6V1033.5Z"/>
        <path class="aig-letra" data-letra="I" d="M127.1 1033.5V995.6H132.8V1033.5Z"/>
        <path class="aig-letra" data-letra="V" d="M163.9 1033.5 142 995.6H148.6L166.8 1027.1L184.8 995.6H191.4L169.6 1033.5Z"/>
        <path class="aig-letra" data-letra="O" d="M204.3 1033.5Q202.5 1033.5 200.9 1032.6Q199.3 1031.7 198.4 1030.1Q197.5 1028.5 197.5 1026.7V1002.5Q197.5 1000.6 198.4 999Q199.3 997.5 200.9 996.5Q202.5 995.6 204.3 995.6H228.5Q230.4 995.6 232 996.5Q233.5 997.5 234.4 999Q235.4 1000.6 235.4 1002.5V1026.7Q235.4 1028.5 234.4 1030.1Q233.5 1031.7 232 1032.6Q230.4 1033.5 228.5 1033.5ZM204.5 1027.8H228.3Q228.9 1027.8 229.3 1027.4Q229.7 1027 229.7 1026.5V1002.6Q229.7 1002.1 229.3 1001.7Q228.9 1001.3 228.3 1001.3H204.5Q203.9 1001.3 203.6 1001.7Q203.2 1002.1 203.2 1002.6V1026.5Q203.2 1027 203.6 1027.4Q203.9 1027.8 204.5 1027.8Z"/>
        <path class="aig-letra" data-letra="S" d="M251.6 1033.5Q249.7 1033.5 248.1 1032.6Q246.6 1031.7 245.7 1030.1Q244.7 1028.5 244.7 1026.7V1024.4H250.4V1026.5Q250.4 1027 250.8 1027.4Q251.2 1027.8 251.7 1027.8H275.6Q276.1 1027.8 276.5 1027.4Q276.9 1027 276.9 1026.5V1018.7Q276.9 1018.2 276.5 1017.8Q276.1 1017.4 275.6 1017.4H251.6Q249.7 1017.4 248.1 1016.5Q246.6 1015.6 245.7 1014Q244.7 1012.5 244.7 1010.6V1002.5Q244.7 1000.6 245.7 999Q246.6 997.5 248.1 996.5Q249.7 995.6 251.6 995.6H275.8Q277.6 995.6 279.2 996.5Q280.8 997.5 281.7 999Q282.6 1000.6 282.6 1002.5V1004.7H276.9V1002.6Q276.9 1002.1 276.5 1001.7Q276.1 1001.3 275.6 1001.3H251.7Q251.2 1001.3 250.8 1001.7Q250.4 1002.1 250.4 1002.6V1010.4Q250.4 1011 250.8 1011.3Q251.2 1011.7 251.7 1011.7H275.8Q277.6 1011.7 279.2 1012.6Q280.8 1013.6 281.7 1015.1Q282.6 1016.7 282.6 1018.5V1026.7Q282.6 1028.5 281.7 1030.1Q280.8 1031.7 279.2 1032.6Q277.6 1033.5 275.8 1033.5Z"/>
      </g>
      <g class="aig-palabra" data-palabra="INMOBILIARIOS">
        <path class="aig-letra" data-letra="I" d="M311 1033.5V995.6H316.7V1033.5Z"/>
        <path class="aig-letra" data-letra="N" d="M327.8 1033.5V995.6H334.6L360 1025.8V995.6H365.7V1033.5H358.9L333.5 1003.3V1033.5Z"/>
        <path class="aig-letra" data-letra="M" d="M375 1033.5V995.6H381.7L396.4 1013.1L411.1 995.6H417.9V1033.5H412.2V1003.2L396.4 1022L380.6 1003.3V1033.5Z"/>
        <path class="aig-letra" data-letra="O" d="M433.1 1033.5Q431.2 1033.5 429.6 1032.6Q428.1 1031.7 427.1 1030.1Q426.2 1028.5 426.2 1026.7V1002.5Q426.2 1000.6 427.1 999Q428.1 997.5 429.6 996.5Q431.2 995.6 433.1 995.6H457.3Q459.1 995.6 460.7 996.5Q462.3 997.5 463.2 999Q464.1 1000.6 464.1 1002.5V1026.7Q464.1 1028.5 463.2 1030.1Q462.3 1031.7 460.7 1032.6Q459.1 1033.5 457.3 1033.5ZM433.2 1027.8H457.1Q457.6 1027.8 458 1027.4Q458.4 1027 458.4 1026.5V1002.6Q458.4 1002.1 458 1001.7Q457.6 1001.3 457.1 1001.3H433.2Q432.7 1001.3 432.3 1001.7Q431.9 1002.1 431.9 1002.6V1026.5Q431.9 1027 432.3 1027.4Q432.7 1027.8 433.2 1027.8Z"/>
        <path class="aig-letra" data-letra="B" d="M473.8 1033.5V995.6H503.3Q505.2 995.6 506.7 996.5Q508.3 997.5 509.2 999Q510.2 1000.6 510.2 1002.5V1010.2Q510.2 1010.9 510 1011.6Q509.9 1012.2 509.6 1012.8Q510.6 1014.3 511.2 1015.6Q511.7 1016.9 511.7 1018.2V1026.7Q511.7 1028.6 510.8 1030.1Q509.9 1031.7 508.3 1032.6Q506.7 1033.5 504.8 1033.5ZM480.8 1027.8H504.7Q505.3 1027.8 505.6 1027.4Q506 1027 506 1026.5V1018.3Q506 1017.8 505.6 1017.4Q505.3 1017 504.7 1017H480.8Q480.3 1017 479.9 1017.4Q479.5 1017.8 479.5 1018.3V1026.5Q479.5 1027 479.9 1027.4Q480.3 1027.8 480.8 1027.8ZM480.8 1011.3H503.2Q503.7 1011.3 504 1011Q504.4 1010.6 504.4 1010V1002.6Q504.4 1002.1 504 1001.7Q503.7 1001.3 503.2 1001.3H480.8Q480.3 1001.3 479.9 1001.7Q479.5 1002.1 479.5 1002.6V1010Q479.5 1010.6 479.9 1011Q480.3 1011.3 480.8 1011.3Z"/>
        <path class="aig-letra" data-letra="I" d="M521.9 1033.5V995.6H527.6V1033.5Z"/>
        <path class="aig-letra" data-letra="L" d="M538.4 1033.5V995.6H544.1V1027.8H576.3V1033.5Z"/>
        <path class="aig-letra" data-letra="I" d="M583 1033.5V995.6H588.6V1033.5Z"/>
        <path class="aig-letra" data-letra="A" d="M600.3 1033.5V1002.5Q600.3 1000.6 601.2 999Q602.2 997.5 603.7 996.5Q605.3 995.6 607.2 995.6H631.3Q633.2 995.6 634.8 996.5Q636.4 997.5 637.3 999Q638.2 1000.6 638.2 1002.5V1033.5H632.5V1020.2H606V1033.5ZM606 1014.6H632.5V1002.6Q632.5 1002.1 632.1 1001.7Q631.7 1001.3 631.2 1001.3H607.3Q606.8 1001.3 606.4 1001.7Q606 1002.1 606 1002.6Z"/>
        <path class="aig-letra" data-letra="R" d="M677.8 1033.5 666.5 1020 652.4 1020V1033.5H646.7V995.7H677.7Q679.6 995.7 681.2 996.6Q682.8 997.6 683.7 999.1Q684.6 1000.7 684.6 1002.5V1013.1Q684.6 1015 683.7 1016.6Q682.8 1018.1 681.2 1019.1Q679.6 1020 677.7 1020H673.9L684.4 1032.5V1033.5ZM653.7 1014.2H677.6Q678.2 1014.2 678.5 1013.9Q678.9 1013.5 678.9 1013V1002.7Q678.9 1002.1 678.5 1001.7Q678.2 1001.4 677.6 1001.4H653.7Q653.2 1001.4 652.8 1001.7Q652.4 1002.1 652.4 1002.7V1013Q652.4 1013.5 652.8 1013.9Q653.2 1014.2 653.7 1014.2Z"/>
        <path class="aig-letra" data-letra="I" d="M694.2 1033.5V995.6H699.9V1033.5Z"/>
        <path class="aig-letra" data-letra="O" d="M717 1033.5Q715.1 1033.5 713.5 1032.6Q711.9 1031.7 711 1030.1Q710.1 1028.5 710.1 1026.7V1002.5Q710.1 1000.6 711 999Q711.9 997.5 713.5 996.5Q715.1 995.6 717 995.6H741.1Q743 995.6 744.6 996.5Q746.1 997.5 747.1 999Q748 1000.6 748 1002.5V1026.7Q748 1028.5 747.1 1030.1Q746.1 1031.7 744.6 1032.6Q743 1033.5 741.1 1033.5ZM717.1 1027.8H741Q741.5 1027.8 741.9 1027.4Q742.3 1027 742.3 1026.5V1002.6Q742.3 1002.1 741.9 1001.7Q741.5 1001.3 741 1001.3H717.1Q716.6 1001.3 716.2 1001.7Q715.8 1002.1 715.8 1002.6V1026.5Q715.8 1027 716.2 1027.4Q716.6 1027.8 717.1 1027.8Z"/>
        <path class="aig-letra" data-letra="S" d="M764.2 1033.5Q762.3 1033.5 760.8 1032.6Q759.2 1031.7 758.3 1030.1Q757.4 1028.5 757.4 1026.7V1024.4H763V1026.5Q763 1027 763.4 1027.4Q763.8 1027.8 764.3 1027.8H788.2Q788.8 1027.8 789.1 1027.4Q789.5 1027 789.5 1026.5V1018.7Q789.5 1018.2 789.1 1017.8Q788.8 1017.4 788.2 1017.4H764.2Q762.3 1017.4 760.8 1016.5Q759.2 1015.6 758.3 1014Q757.4 1012.5 757.4 1010.6V1002.5Q757.4 1000.6 758.3 999Q759.2 997.5 760.8 996.5Q762.3 995.6 764.2 995.6H788.4Q790.3 995.6 791.8 996.5Q793.4 997.5 794.3 999Q795.3 1000.6 795.3 1002.5V1004.7H789.5V1002.6Q789.5 1002.1 789.1 1001.7Q788.8 1001.3 788.2 1001.3H764.3Q763.8 1001.3 763.4 1001.7Q763 1002.1 763 1002.6V1010.4Q763 1011 763.4 1011.3Q763.8 1011.7 764.3 1011.7H788.4Q790.3 1011.7 791.8 1012.6Q793.4 1013.6 794.3 1015.1Q795.3 1016.7 795.3 1018.5V1026.7Q795.3 1028.5 794.3 1030.1Q793.4 1031.7 791.8 1032.6Q790.3 1033.5 788.4 1033.5Z"/>
      </g>
      <g class="aig-palabra" data-palabra="GLOBALES">
        <path class="aig-letra" data-letra="G" d="M830.2 1033.5Q828.3 1033.5 826.7 1032.6Q825.2 1031.7 824.3 1030.1Q823.3 1028.5 823.3 1026.7V1002.5Q823.3 1000.6 824.3 999Q825.2 997.5 826.7 996.5Q828.3 995.6 830.2 995.6H854.4Q856.2 995.6 857.8 996.5Q859.4 997.5 860.3 999Q861.2 1000.6 861.2 1002.5V1004.7H855.5V1002.6Q855.5 1002.1 855.1 1001.7Q854.7 1001.3 854.2 1001.3H830.3Q829.8 1001.3 829.4 1001.7Q829 1002.1 829 1002.6V1026.5Q829 1027 829.4 1027.4Q829.8 1027.8 830.3 1027.8H854.2Q854.7 1027.8 855.1 1027.4Q855.5 1027 855.5 1026.5V1018.5H846.6V1012.7H861.2V1026.7Q861.2 1028.5 860.3 1030.1Q859.4 1031.7 857.8 1032.6Q856.2 1033.5 854.4 1033.5Z"/>
        <path class="aig-letra" data-letra="L" d="M871.3 1033.5V995.6H876.9V1027.8H909.1V1033.5Z"/>
        <path class="aig-letra" data-letra="O" d="M921.9 1033.5Q920 1033.5 918.4 1032.6Q916.9 1031.7 916 1030.1Q915 1028.5 915 1026.7V1002.5Q915 1000.6 916 999Q916.9 997.5 918.4 996.5Q920 995.6 921.9 995.6H946.1Q948 995.6 949.5 996.5Q951.1 997.5 952 999Q952.9 1000.6 952.9 1002.5V1026.7Q952.9 1028.5 952 1030.1Q951.1 1031.7 949.5 1032.6Q948 1033.5 946.1 1033.5ZM922 1027.8H945.9Q946.4 1027.8 946.8 1027.4Q947.2 1027 947.2 1026.5V1002.6Q947.2 1002.1 946.8 1001.7Q946.4 1001.3 945.9 1001.3H922Q921.5 1001.3 921.1 1001.7Q920.7 1002.1 920.7 1002.6V1026.5Q920.7 1027 921.1 1027.4Q921.5 1027.8 922 1027.8Z"/>
        <path class="aig-letra" data-letra="B" d="M963.5 1033.5V995.6H993Q994.8 995.6 996.4 996.5Q998 997.5 998.9 999Q999.8 1000.6 999.8 1002.5V1010.2Q999.8 1010.9 999.7 1011.6Q999.5 1012.2 999.2 1012.8Q1000.3 1014.3 1000.8 1015.6Q1001.4 1016.9 1001.4 1018.2V1026.7Q1001.4 1028.6 1000.5 1030.1Q999.5 1031.7 998 1032.6Q996.4 1033.5 994.5 1033.5ZM970.5 1027.8H994.3Q994.9 1027.8 995.3 1027.4Q995.6 1027 995.6 1026.5V1018.3Q995.6 1017.8 995.3 1017.4Q994.9 1017 994.3 1017H970.5Q970 1017 969.6 1017.4Q969.2 1017.8 969.2 1018.3V1026.5Q969.2 1027 969.6 1027.4Q970 1027.8 970.5 1027.8ZM970.5 1011.3H992.8Q993.3 1011.3 993.7 1011Q994.1 1010.6 994.1 1010V1002.6Q994.1 1002.1 993.7 1001.7Q993.3 1001.3 992.8 1001.3H970.5Q970 1001.3 969.6 1001.7Q969.2 1002.1 969.2 1002.6V1010Q969.2 1010.6 969.6 1011Q970 1011.3 970.5 1011.3Z"/>
        <path class="aig-letra" data-letra="A" d="M1010.2 1033.5V1002.5Q1010.2 1000.6 1011.1 999Q1012 997.5 1013.6 996.5Q1015.1 995.6 1017 995.6H1041.2Q1043.1 995.6 1044.6 996.5Q1046.2 997.5 1047.1 999Q1048.1 1000.6 1048.1 1002.5V1033.5H1042.3V1020.2H1015.9V1033.5ZM1015.9 1014.6H1042.3V1002.6Q1042.3 1002.1 1042 1001.7Q1041.6 1001.3 1041 1001.3H1017.2Q1016.6 1001.3 1016.2 1001.7Q1015.9 1002.1 1015.9 1002.6Z"/>
        <path class="aig-letra" data-letra="L" d="M1058.3 1033.5V995.6H1064V1027.8H1096.2V1033.5Z"/>
        <path class="aig-letra" data-letra="E" d="M1101.9 1033.5V995.6H1136.6V1001.3H1107.6V1011.7H1130.9V1017.4H1107.6V1027.8H1136.6V1033.5Z"/>
        <path class="aig-letra" data-letra="S" d="M1152.5 1033.5Q1150.6 1033.5 1149.1 1032.6Q1147.5 1031.7 1146.6 1030.1Q1145.7 1028.5 1145.7 1026.7V1024.4H1151.3V1026.5Q1151.3 1027 1151.7 1027.4Q1152.1 1027.8 1152.7 1027.8H1176.5Q1177.1 1027.8 1177.4 1027.4Q1177.8 1027 1177.8 1026.5V1018.7Q1177.8 1018.2 1177.4 1017.8Q1177.1 1017.4 1176.5 1017.4H1152.5Q1150.6 1017.4 1149.1 1016.5Q1147.5 1015.6 1146.6 1014Q1145.7 1012.5 1145.7 1010.6V1002.5Q1145.7 1000.6 1146.6 999Q1147.5 997.5 1149.1 996.5Q1150.6 995.6 1152.5 995.6H1176.7Q1178.6 995.6 1180.1 996.5Q1181.7 997.5 1182.6 999Q1183.6 1000.6 1183.6 1002.5V1004.7H1177.8V1002.6Q1177.8 1002.1 1177.4 1001.7Q1177.1 1001.3 1176.5 1001.3H1152.7Q1152.1 1001.3 1151.7 1001.7Q1151.3 1002.1 1151.3 1002.6V1010.4Q1151.3 1011 1151.7 1011.3Q1152.1 1011.7 1152.7 1011.7H1176.7Q1178.6 1011.7 1180.1 1012.6Q1181.7 1013.6 1182.6 1015.1Q1183.6 1016.7 1183.6 1018.5V1026.7Q1183.6 1028.5 1182.6 1030.1Q1181.7 1031.7 1180.1 1032.6Q1178.6 1033.5 1176.7 1033.5Z"/>
      </g>
    </g>
  </g>
  <!-- 6. Lema en Nunito. -->
  <g class="aig-lema" fill="#000000">
    <g class="aig-palabra" data-palabra="DONDE">
      <path class="aig-letra" data-letra="D" d="M-277.7 1125.3Q-279.2 1125.3 -280.1 1124.5Q-280.9 1123.7 -280.9 1122.2V1095.9Q-280.9 1094.4 -280.1 1093.6Q-279.2 1092.8 -277.7 1092.8H-268.8Q-260.6 1092.8 -256.1 1097Q-251.7 1101.2 -251.7 1109Q-251.7 1113 -252.8 1116Q-253.9 1119 -256.1 1121.1Q-258.3 1123.2 -261.5 1124.3Q-264.6 1125.3 -268.8 1125.3ZM-274.9 1120.4H-269.1Q-266.3 1120.4 -264.2 1119.7Q-262.1 1119 -260.6 1117.6Q-259.2 1116.2 -258.5 1114Q-257.9 1111.9 -257.9 1109Q-257.9 1103.3 -260.7 1100.5Q-263.5 1097.7 -269.1 1097.7H-274.9Z"/>
      <path class="aig-letra" data-letra="O" d="M-216.2 1125.8Q-220.9 1125.8 -224.5 1123.7Q-228 1121.6 -229.9 1117.9Q-231.9 1114.1 -231.9 1109Q-231.9 1105.2 -230.8 1102.1Q-229.7 1099.1 -227.6 1096.9Q-225.5 1094.7 -222.7 1093.5Q-219.8 1092.3 -216.2 1092.3Q-211.4 1092.3 -207.9 1094.4Q-204.4 1096.4 -202.5 1100.2Q-200.5 1103.9 -200.5 1109Q-200.5 1112.8 -201.7 1115.9Q-202.8 1119 -204.8 1121.2Q-206.9 1123.5 -209.8 1124.6Q-212.7 1125.8 -216.2 1125.8ZM-216.2 1120.7Q-213.2 1120.7 -211.1 1119.3Q-209 1118 -207.9 1115.3Q-206.7 1112.7 -206.7 1109Q-206.7 1103.5 -209.2 1100.4Q-211.7 1097.4 -216.2 1097.4Q-219.2 1097.4 -221.3 1098.8Q-223.4 1100.1 -224.5 1102.7Q-225.7 1105.3 -225.7 1109Q-225.7 1114.5 -223.2 1117.6Q-220.7 1120.7 -216.2 1120.7Z"/>
      <path class="aig-letra" data-letra="N" d="M-176.5 1125.7Q-177.9 1125.7 -178.6 1125Q-179.3 1124.2 -179.3 1122.9V1095.4Q-179.3 1093.9 -178.6 1093.2Q-177.9 1092.4 -176.7 1092.4Q-175.6 1092.4 -175.1 1092.8Q-174.6 1093.2 -173.8 1094.1L-157.3 1115.5V1095.2Q-157.3 1093.9 -156.6 1093.1Q-155.9 1092.4 -154.6 1092.4Q-153.2 1092.4 -152.5 1093.1Q-151.8 1093.9 -151.8 1095.2V1122.9Q-151.8 1124.2 -152.5 1125Q-153.1 1125.7 -154.2 1125.7Q-155.3 1125.7 -155.9 1125.3Q-156.5 1124.9 -157.3 1124L-173.8 1102.5V1122.9Q-173.8 1124.2 -174.5 1125Q-175.2 1125.7 -176.5 1125.7Z"/>
      <path class="aig-letra" data-letra="D" d="M-128.8 1125.3Q-130.3 1125.3 -131.1 1124.5Q-131.9 1123.7 -131.9 1122.2V1095.9Q-131.9 1094.4 -131.1 1093.6Q-130.3 1092.8 -128.8 1092.8H-119.8Q-111.6 1092.8 -107.2 1097Q-102.7 1101.2 -102.7 1109Q-102.7 1113 -103.9 1116Q-105 1119 -107.2 1121.1Q-109.4 1123.2 -112.6 1124.3Q-115.7 1125.3 -119.8 1125.3ZM-126 1120.4H-120.2Q-117.3 1120.4 -115.2 1119.7Q-113.1 1119 -111.7 1117.6Q-110.3 1116.2 -109.6 1114Q-108.9 1111.9 -108.9 1109Q-108.9 1103.3 -111.7 1100.5Q-114.6 1097.7 -120.2 1097.7H-126Z"/>
      <path class="aig-letra" data-letra="E" d="M-80.8 1125.3Q-82.3 1125.3 -83.1 1124.5Q-83.9 1123.7 -83.9 1122.2V1095.9Q-83.9 1094.4 -83.1 1093.6Q-82.3 1092.8 -80.8 1092.8H-64.3Q-63.1 1092.8 -62.5 1093.4Q-61.9 1094 -61.9 1095.1Q-61.9 1096.2 -62.5 1096.9Q-63.1 1097.5 -64.3 1097.5H-78.3V1106.4H-65.3Q-64.1 1106.4 -63.5 1107Q-62.9 1107.6 -62.9 1108.8Q-62.9 1110 -63.5 1110.6Q-64.1 1111.2 -65.3 1111.2H-78.3V1120.6H-64.3Q-63.1 1120.6 -62.5 1121.2Q-61.9 1121.8 -61.9 1123Q-61.9 1124.1 -62.5 1124.7Q-63.1 1125.3 -64.3 1125.3Z"/>
    </g>
    <g class="aig-palabra" data-palabra="CADA">
      <path class="aig-letra" data-letra="C" d="M0.2 1125.8Q-4.9 1125.8 -8.5 1123.8Q-12.2 1121.7 -14.1 1117.9Q-16 1114.2 -16 1109Q-16 1105.2 -14.9 1102.1Q-13.8 1099.1 -11.7 1096.9Q-9.7 1094.7 -6.6 1093.5Q-3.6 1092.3 0.2 1092.3Q2.7 1092.3 5.2 1093Q7.6 1093.6 9.5 1094.8Q10.4 1095.4 10.8 1096.3Q11.1 1097.1 10.9 1097.9Q10.7 1098.7 10.1 1099.3Q9.6 1099.8 8.7 1099.9Q7.9 1100 6.8 1099.3Q5.4 1098.4 3.7 1098Q2.1 1097.6 0.4 1097.6Q-2.9 1097.6 -5.2 1098.9Q-7.4 1100.3 -8.6 1102.8Q-9.8 1105.3 -9.8 1109Q-9.8 1112.7 -8.6 1115.3Q-7.4 1117.9 -5.2 1119.2Q-2.9 1120.5 0.4 1120.5Q2.1 1120.5 3.8 1120.1Q5.5 1119.7 7.1 1118.7Q8.1 1118.1 8.9 1118.2Q9.7 1118.3 10.3 1118.8Q10.8 1119.3 11 1120.1Q11.2 1120.8 10.9 1121.6Q10.6 1122.4 9.8 1123Q7.9 1124.4 5.4 1125.1Q2.8 1125.8 0.2 1125.8Z"/>
      <path class="aig-letra" data-letra="A" d="M32 1125.7Q30.9 1125.7 30.2 1125.2Q29.6 1124.7 29.4 1123.8Q29.3 1123 29.8 1121.9L42 1094.9Q42.6 1093.6 43.4 1093Q44.3 1092.4 45.4 1092.4Q46.4 1092.4 47.3 1093Q48.2 1093.6 48.8 1094.9L61 1121.9Q61.5 1123 61.4 1123.9Q61.2 1124.7 60.6 1125.2Q59.9 1125.7 58.9 1125.7Q57.6 1125.7 56.9 1125.1Q56.1 1124.5 55.6 1123.2L53.3 1117.8H37.4L35.1 1123.2Q34.5 1124.5 33.9 1125.1Q33.2 1125.7 32 1125.7ZM45.3 1099.2 39.4 1113.1H51.2L45.4 1099.2Z"/>
      <path class="aig-letra" data-letra="D" d="M82.8 1125.3Q81.3 1125.3 80.5 1124.5Q79.7 1123.7 79.7 1122.2V1095.9Q79.7 1094.4 80.5 1093.6Q81.3 1092.8 82.8 1092.8H91.8Q100 1092.8 104.4 1097Q108.9 1101.2 108.9 1109Q108.9 1113 107.8 1116Q106.6 1119 104.4 1121.1Q102.2 1123.2 99.1 1124.3Q95.9 1125.3 91.8 1125.3ZM85.6 1120.4H91.4Q94.3 1120.4 96.4 1119.7Q98.5 1119 99.9 1117.6Q101.3 1116.2 102 1114Q102.7 1111.9 102.7 1109Q102.7 1103.3 99.9 1100.5Q97.1 1097.7 91.4 1097.7H85.6Z"/>
      <path class="aig-letra" data-letra="A" d="M127.2 1125.7Q126.1 1125.7 125.4 1125.2Q124.7 1124.7 124.6 1123.8Q124.5 1123 124.9 1121.9L137.1 1094.9Q137.7 1093.6 138.6 1093Q139.4 1092.4 140.5 1092.4Q141.6 1092.4 142.5 1093Q143.3 1093.6 143.9 1094.9L156.2 1121.9Q156.7 1123 156.5 1123.9Q156.4 1124.7 155.7 1125.2Q155.1 1125.7 154 1125.7Q152.7 1125.7 152 1125.1Q151.3 1124.5 150.7 1123.2L148.4 1117.8H132.5L130.3 1123.2Q129.7 1124.5 129 1125.1Q128.4 1125.7 127.2 1125.7ZM140.4 1099.2 134.6 1113.1H146.4L140.5 1099.2Z"/>
    </g>
    <g class="aig-palabra" data-palabra="PROPIEDAD">
      <path class="aig-letra" data-letra="P" d="M203.9 1125.7Q202.5 1125.7 201.7 1124.9Q201 1124.1 201 1122.7V1095.8Q201 1094.3 201.8 1093.5Q202.5 1092.8 204 1092.8H215.1Q220.5 1092.8 223.4 1095.4Q226.3 1098.1 226.3 1102.9Q226.3 1107.7 223.4 1110.4Q220.5 1113.1 215.1 1113.1H206.9V1122.7Q206.9 1124.1 206.1 1124.9Q205.4 1125.7 203.9 1125.7ZM206.9 1108.5H214.2Q217.3 1108.5 218.9 1107.1Q220.6 1105.7 220.6 1102.9Q220.6 1100.2 218.9 1098.8Q217.3 1097.4 214.2 1097.4H206.9Z"/>
      <path class="aig-letra" data-letra="R" d="M248.5 1125.7Q247.1 1125.7 246.3 1124.9Q245.5 1124.1 245.5 1122.7V1095.8Q245.5 1094.3 246.3 1093.5Q247.1 1092.8 248.5 1092.8H259.7Q265 1092.8 267.9 1095.3Q270.9 1097.9 270.9 1102.5Q270.9 1105.5 269.5 1107.7Q268.2 1109.9 265.7 1111Q264.7 1111.5 263.6 1111.8Q264.3 1112 264.9 1112.4Q266.3 1113.3 267.4 1115.3L270.9 1121.7Q271.4 1122.7 271.4 1123.6Q271.3 1124.6 270.7 1125.1Q270 1125.7 268.8 1125.7Q267.5 1125.7 266.7 1125.2Q266 1124.7 265.4 1123.5L260.7 1114.9Q259.9 1113.4 258.7 1112.8Q257.6 1112.3 255.8 1112.3H251.4V1122.7Q251.4 1124.1 250.7 1124.9Q250 1125.7 248.5 1125.7ZM251.4 1107.9H258.7Q261.8 1107.9 263.5 1106.6Q265.1 1105.3 265.1 1102.7Q265.1 1100.1 263.5 1098.8Q261.8 1097.4 258.7 1097.4H251.4Z"/>
      <path class="aig-letra" data-letra="O" d="M307.1 1125.8Q302.4 1125.8 298.8 1123.7Q295.3 1121.6 293.4 1117.9Q291.4 1114.1 291.4 1109Q291.4 1105.2 292.5 1102.1Q293.6 1099.1 295.7 1096.9Q297.8 1094.7 300.6 1093.5Q303.5 1092.3 307.1 1092.3Q311.8 1092.3 315.4 1094.4Q318.9 1096.4 320.8 1100.2Q322.8 1103.9 322.8 1109Q322.8 1112.8 321.6 1115.9Q320.5 1119 318.5 1121.2Q316.4 1123.5 313.5 1124.6Q310.6 1125.8 307.1 1125.8ZM307.1 1120.7Q310.1 1120.7 312.2 1119.3Q314.3 1118 315.4 1115.3Q316.6 1112.7 316.6 1109Q316.6 1103.5 314.1 1100.4Q311.6 1097.4 307.1 1097.4Q304.1 1097.4 302 1098.8Q299.9 1100.1 298.7 1102.7Q297.6 1105.3 297.6 1109Q297.6 1114.5 300.1 1117.6Q302.6 1120.7 307.1 1120.7Z"/>
      <path class="aig-letra" data-letra="P" d="M346.6 1125.7Q345.1 1125.7 344.4 1124.9Q343.6 1124.1 343.6 1122.7V1095.8Q343.6 1094.3 344.4 1093.5Q345.2 1092.8 346.6 1092.8H357.7Q363.1 1092.8 366 1095.4Q368.9 1098.1 368.9 1102.9Q368.9 1107.7 366 1110.4Q363.1 1113.1 357.7 1113.1H349.5V1122.7Q349.5 1124.1 348.8 1124.9Q348 1125.7 346.6 1125.7ZM349.5 1108.5H356.8Q360 1108.5 361.6 1107.1Q363.2 1105.7 363.2 1102.9Q363.2 1100.2 361.6 1098.8Q360 1097.4 356.8 1097.4H349.5Z"/>
      <path class="aig-letra" data-letra="I" d="M391.5 1125.7Q390.1 1125.7 389.3 1124.9Q388.6 1124.1 388.6 1122.7V1095.4Q388.6 1094 389.3 1093.2Q390.1 1092.4 391.5 1092.4Q393 1092.4 393.7 1093.2Q394.5 1094 394.5 1095.4V1122.7Q394.5 1124.1 393.7 1124.9Q393 1125.7 391.5 1125.7Z"/>
      <path class="aig-letra" data-letra="E" d="M417.5 1125.3Q416 1125.3 415.2 1124.5Q414.4 1123.7 414.4 1122.2V1095.9Q414.4 1094.4 415.2 1093.6Q416 1092.8 417.5 1092.8H434Q435.2 1092.8 435.8 1093.4Q436.4 1094 436.4 1095.1Q436.4 1096.2 435.8 1096.9Q435.2 1097.5 434 1097.5H420.1V1106.4H433Q434.2 1106.4 434.8 1107Q435.4 1107.6 435.4 1108.8Q435.4 1110 434.8 1110.6Q434.2 1111.2 433 1111.2H420.1V1120.6H434Q435.2 1120.6 435.8 1121.2Q436.4 1121.8 436.4 1123Q436.4 1124.1 435.8 1124.7Q435.2 1125.3 434 1125.3Z"/>
      <path class="aig-letra" data-letra="D" d="M458.3 1125.3Q456.8 1125.3 456 1124.5Q455.2 1123.7 455.2 1122.2V1095.9Q455.2 1094.4 456 1093.6Q456.8 1092.8 458.3 1092.8H467.3Q475.5 1092.8 479.9 1097Q484.4 1101.2 484.4 1109Q484.4 1113 483.2 1116Q482.1 1119 479.9 1121.1Q477.7 1123.2 474.5 1124.3Q471.4 1125.3 467.3 1125.3ZM461.1 1120.4H466.9Q469.8 1120.4 471.9 1119.7Q474 1119 475.4 1117.6Q476.8 1116.2 477.5 1114Q478.2 1111.9 478.2 1109Q478.2 1103.3 475.4 1100.5Q472.5 1097.7 466.9 1097.7H461.1Z"/>
      <path class="aig-letra" data-letra="A" d="M503.1 1125.7Q502 1125.7 501.3 1125.2Q500.6 1124.7 500.5 1123.8Q500.3 1123 500.8 1121.9L513 1094.9Q513.6 1093.6 514.5 1093Q515.3 1092.4 516.4 1092.4Q517.5 1092.4 518.3 1093Q519.2 1093.6 519.8 1094.9L532 1121.9Q532.6 1123 532.4 1123.9Q532.3 1124.7 531.6 1125.2Q531 1125.7 529.9 1125.7Q528.6 1125.7 527.9 1125.1Q527.2 1124.5 526.6 1123.2L524.3 1117.8H508.4L506.2 1123.2Q505.6 1124.5 504.9 1125.1Q504.3 1125.7 503.1 1125.7ZM516.3 1099.2 510.5 1113.1H522.3L516.4 1099.2Z"/>
      <path class="aig-letra" data-letra="D" d="M553.9 1125.3Q552.3 1125.3 551.5 1124.5Q550.7 1123.7 550.7 1122.2V1095.9Q550.7 1094.4 551.5 1093.6Q552.3 1092.8 553.9 1092.8H562.8Q571 1092.8 575.5 1097Q579.9 1101.2 579.9 1109Q579.9 1113 578.8 1116Q577.7 1119 575.5 1121.1Q573.3 1123.2 570.1 1124.3Q567 1125.3 562.8 1125.3ZM556.6 1120.4H562.5Q565.3 1120.4 567.4 1119.7Q569.5 1119 570.9 1117.6Q572.4 1116.2 573.1 1114Q573.7 1111.9 573.7 1109Q573.7 1103.3 570.9 1100.5Q568.1 1097.7 562.5 1097.7H556.6Z"/>
    </g>
    <g class="aig-palabra" data-palabra="CUENTA">
      <path class="aig-letra" data-letra="C" d="M641.2 1125.8Q636.2 1125.8 632.5 1123.8Q628.9 1121.7 627 1117.9Q625 1114.2 625 1109Q625 1105.2 626.1 1102.1Q627.2 1099.1 629.3 1096.9Q631.4 1094.7 634.4 1093.5Q637.5 1092.3 641.2 1092.3Q643.8 1092.3 646.2 1093Q648.7 1093.6 650.5 1094.8Q651.5 1095.4 651.8 1096.3Q652.2 1097.1 652 1097.9Q651.8 1098.7 651.2 1099.3Q650.6 1099.8 649.8 1099.9Q648.9 1100 647.9 1099.3Q646.5 1098.4 644.8 1098Q643.1 1097.6 641.4 1097.6Q638.2 1097.6 635.9 1098.9Q633.6 1100.3 632.5 1102.8Q631.3 1105.3 631.3 1109Q631.3 1112.7 632.5 1115.3Q633.6 1117.9 635.9 1119.2Q638.2 1120.5 641.4 1120.5Q643.2 1120.5 644.9 1120.1Q646.6 1119.7 648.1 1118.7Q649.1 1118.1 650 1118.2Q650.8 1118.3 651.3 1118.8Q651.9 1119.3 652.1 1120.1Q652.2 1120.8 652 1121.6Q651.7 1122.4 650.9 1123Q649 1124.4 646.4 1125.1Q643.9 1125.8 641.2 1125.8Z"/>
      <path class="aig-letra" data-letra="U" d="M685.1 1125.8Q681.7 1125.8 679.1 1124.9Q676.6 1124.1 674.8 1122.3Q673.1 1120.6 672.2 1118Q671.3 1115.4 671.3 1112V1095.4Q671.3 1093.9 672.1 1093.1Q672.8 1092.4 674.3 1092.4Q675.7 1092.4 676.5 1093.1Q677.2 1093.9 677.2 1095.4V1111.9Q677.2 1116.3 679.2 1118.5Q681.2 1120.7 685.1 1120.7Q688.9 1120.7 690.9 1118.5Q692.9 1116.3 692.9 1111.9V1095.4Q692.9 1093.9 693.6 1093.1Q694.4 1092.4 695.8 1092.4Q697.2 1092.4 698 1093.1Q698.7 1093.9 698.7 1095.4V1112Q698.7 1116.5 697.2 1119.6Q695.7 1122.7 692.6 1124.3Q689.6 1125.8 685.1 1125.8Z"/>
      <path class="aig-letra" data-letra="E" d="M721.1 1125.3Q719.6 1125.3 718.8 1124.5Q718 1123.7 718 1122.2V1095.9Q718 1094.4 718.8 1093.6Q719.6 1092.8 721.1 1092.8H737.6Q738.8 1092.8 739.4 1093.4Q740 1094 740 1095.1Q740 1096.2 739.4 1096.9Q738.8 1097.5 737.6 1097.5H723.7V1106.4H736.6Q737.8 1106.4 738.4 1107Q739 1107.6 739 1108.8Q739 1110 738.4 1110.6Q737.8 1111.2 736.6 1111.2H723.7V1120.6H737.6Q738.8 1120.6 739.4 1121.2Q740 1121.8 740 1123Q740 1124.1 739.4 1124.7Q738.8 1125.3 737.6 1125.3Z"/>
      <path class="aig-letra" data-letra="N" d="M763.6 1125.7Q762.3 1125.7 761.6 1125Q760.8 1124.2 760.8 1122.9V1095.4Q760.8 1093.9 761.6 1093.2Q762.3 1092.4 763.4 1092.4Q764.5 1092.4 765 1092.8Q765.6 1093.2 766.3 1094.1L782.8 1115.5V1095.2Q782.8 1093.9 783.5 1093.1Q784.2 1092.4 785.6 1092.4Q786.9 1092.4 787.6 1093.1Q788.3 1093.9 788.3 1095.2V1122.9Q788.3 1124.2 787.6 1125Q787 1125.7 785.9 1125.7Q784.8 1125.7 784.2 1125.3Q783.6 1124.9 782.8 1124L766.3 1102.5V1122.9Q766.3 1124.2 765.6 1125Q765 1125.7 763.6 1125.7Z"/>
      <path class="aig-letra" data-letra="T" d="M820.7 1125.7Q819.2 1125.7 818.5 1124.9Q817.7 1124.1 817.7 1122.7V1097.7H808.7Q807.5 1097.7 806.8 1097Q806.1 1096.4 806.1 1095.2Q806.1 1094 806.8 1093.4Q807.5 1092.8 808.7 1092.8H832.6Q833.8 1092.8 834.5 1093.4Q835.2 1094 835.2 1095.2Q835.2 1096.4 834.5 1097Q833.8 1097.7 832.6 1097.7H823.6V1122.7Q823.6 1124.1 822.9 1124.9Q822.1 1125.7 820.7 1125.7Z"/>
      <path class="aig-letra" data-letra="A" d="M850.4 1125.7Q849.3 1125.7 848.6 1125.2Q848 1124.7 847.8 1123.8Q847.7 1123 848.1 1121.9L860.3 1094.9Q860.9 1093.6 861.8 1093Q862.6 1092.4 863.8 1092.4Q864.8 1092.4 865.7 1093Q866.5 1093.6 867.1 1094.9L879.4 1121.9Q879.9 1123 879.7 1123.9Q879.6 1124.7 879 1125.2Q878.3 1125.7 877.3 1125.7Q876 1125.7 875.2 1125.1Q874.5 1124.5 874 1123.2L871.7 1117.8H855.8L853.5 1123.2Q852.9 1124.5 852.3 1125.1Q851.6 1125.7 850.4 1125.7ZM863.7 1099.2 857.8 1113.1H869.6L863.8 1099.2Z"/>
    </g>
    <g class="aig-palabra" data-palabra="UNA">
      <path class="aig-letra" data-letra="U" d="M937.7 1125.8Q934.4 1125.8 931.8 1124.9Q929.2 1124.1 927.5 1122.3Q925.7 1120.6 924.8 1118Q924 1115.4 924 1112V1095.4Q924 1093.9 924.7 1093.1Q925.5 1092.4 926.9 1092.4Q928.4 1092.4 929.1 1093.1Q929.9 1093.9 929.9 1095.4V1111.9Q929.9 1116.3 931.9 1118.5Q933.9 1120.7 937.7 1120.7Q941.6 1120.7 943.6 1118.5Q945.5 1116.3 945.5 1111.9V1095.4Q945.5 1093.9 946.3 1093.1Q947.1 1092.4 948.5 1092.4Q949.9 1092.4 950.6 1093.1Q951.4 1093.9 951.4 1095.4V1112Q951.4 1116.5 949.9 1119.6Q948.3 1122.7 945.3 1124.3Q942.2 1125.8 937.7 1125.8Z"/>
      <path class="aig-letra" data-letra="N" d="M973.4 1125.7Q972.1 1125.7 971.4 1125Q970.7 1124.2 970.7 1122.9V1095.4Q970.7 1093.9 971.4 1093.2Q972.1 1092.4 973.3 1092.4Q974.3 1092.4 974.8 1092.8Q975.4 1093.2 976.1 1094.1L992.6 1115.5V1095.2Q992.6 1093.9 993.3 1093.1Q994 1092.4 995.4 1092.4Q996.7 1092.4 997.4 1093.1Q998.1 1093.9 998.1 1095.2V1122.9Q998.1 1124.2 997.5 1125Q996.8 1125.7 995.7 1125.7Q994.7 1125.7 994 1125.3Q993.4 1124.9 992.7 1124L976.2 1102.5V1122.9Q976.2 1124.2 975.5 1125Q974.8 1125.7 973.4 1125.7Z"/>
      <path class="aig-letra" data-letra="A" d="M1020.4 1125.7Q1019.3 1125.7 1018.6 1125.2Q1017.9 1124.7 1017.8 1123.8Q1017.7 1123 1018.1 1121.9L1030.3 1094.9Q1030.9 1093.6 1031.8 1093Q1032.6 1092.4 1033.8 1092.4Q1034.8 1092.4 1035.7 1093Q1036.5 1093.6 1037.1 1094.9L1049.4 1121.9Q1049.9 1123 1049.7 1123.9Q1049.6 1124.7 1049 1125.2Q1048.3 1125.7 1047.2 1125.7Q1046 1125.7 1045.2 1125.1Q1044.5 1124.5 1044 1123.2L1041.7 1117.8H1025.8L1023.5 1123.2Q1022.9 1124.5 1022.2 1125.1Q1021.6 1125.7 1020.4 1125.7ZM1033.7 1099.2 1027.8 1113.1H1039.6L1033.8 1099.2Z"/>
    </g>
    <g class="aig-palabra" data-palabra="HISTORIA">
      <path class="aig-letra" data-letra="H" d="M1096.7 1125.7Q1095.3 1125.7 1094.5 1124.9Q1093.8 1124.1 1093.8 1122.7V1095.4Q1093.8 1094 1094.5 1093.2Q1095.3 1092.4 1096.7 1092.4Q1098.2 1092.4 1098.9 1093.2Q1099.7 1094 1099.7 1095.4V1106.4H1116.5V1095.4Q1116.5 1094 1117.2 1093.2Q1118 1092.4 1119.4 1092.4Q1120.9 1092.4 1121.6 1093.2Q1122.4 1094 1122.4 1095.4V1122.7Q1122.4 1124.1 1121.6 1124.9Q1120.9 1125.7 1119.4 1125.7Q1118 1125.7 1117.2 1124.9Q1116.5 1124.1 1116.5 1122.7V1111.3H1099.7V1122.7Q1099.7 1124.1 1099 1124.9Q1098.2 1125.7 1096.7 1125.7Z"/>
      <path class="aig-letra" data-letra="I" d="M1144.8 1125.7Q1143.4 1125.7 1142.6 1124.9Q1141.9 1124.1 1141.9 1122.7V1095.4Q1141.9 1094 1142.6 1093.2Q1143.4 1092.4 1144.8 1092.4Q1146.3 1092.4 1147 1093.2Q1147.8 1094 1147.8 1095.4V1122.7Q1147.8 1124.1 1147 1124.9Q1146.3 1125.7 1144.8 1125.7Z"/>
      <path class="aig-letra" data-letra="S" d="M1179.7 1125.8Q1177.7 1125.8 1175.7 1125.5Q1173.6 1125.2 1171.8 1124.6Q1170 1124 1168.6 1123Q1167.8 1122.5 1167.4 1121.7Q1167.1 1120.9 1167.2 1120.1Q1167.3 1119.4 1167.8 1118.8Q1168.3 1118.2 1169.1 1118.1Q1169.8 1118 1170.7 1118.5Q1172.7 1119.7 1175 1120.3Q1177.2 1120.8 1179.7 1120.8Q1183.4 1120.8 1185 1119.6Q1186.7 1118.4 1186.7 1116.4Q1186.7 1114.8 1185.5 1113.9Q1184.4 1113 1181.5 1112.4L1176.4 1111.3Q1172 1110.4 1169.9 1108.2Q1167.7 1106 1167.7 1102.4Q1167.7 1100.1 1168.6 1098.3Q1169.6 1096.4 1171.3 1095.1Q1172.9 1093.7 1175.3 1093Q1177.6 1092.3 1180.4 1092.3Q1183.2 1092.3 1185.7 1093Q1188.2 1093.7 1190.2 1095Q1190.9 1095.5 1191.2 1096.3Q1191.4 1097 1191.3 1097.7Q1191.1 1098.5 1190.6 1099Q1190.1 1099.5 1189.4 1099.6Q1188.6 1099.7 1187.6 1099.1Q1185.9 1098.1 1184.2 1097.7Q1182.4 1097.3 1180.4 1097.3Q1178.3 1097.3 1176.7 1097.9Q1175.2 1098.5 1174.4 1099.6Q1173.6 1100.7 1173.6 1102.1Q1173.6 1103.8 1174.7 1104.8Q1175.8 1105.8 1178.5 1106.4L1183.5 1107.4Q1188.1 1108.4 1190.3 1110.5Q1192.6 1112.5 1192.6 1116Q1192.6 1118.2 1191.7 1120Q1190.8 1121.8 1189.1 1123.1Q1187.4 1124.4 1185 1125.1Q1182.7 1125.8 1179.7 1125.8Z"/>
      <path class="aig-letra" data-letra="T" d="M1223.3 1125.7Q1221.9 1125.7 1221.1 1124.9Q1220.4 1124.1 1220.4 1122.7V1097.7H1211.3Q1210.1 1097.7 1209.5 1097Q1208.8 1096.4 1208.8 1095.2Q1208.8 1094 1209.5 1093.4Q1210.1 1092.8 1211.3 1092.8H1235.3Q1236.5 1092.8 1237.2 1093.4Q1237.8 1094 1237.8 1095.2Q1237.8 1096.4 1237.2 1097Q1236.5 1097.7 1235.3 1097.7H1226.3V1122.7Q1226.3 1124.1 1225.5 1124.9Q1224.8 1125.7 1223.3 1125.7Z"/>
      <path class="aig-letra" data-letra="O" d="M1269.4 1125.8Q1264.7 1125.8 1261.2 1123.7Q1257.6 1121.6 1255.7 1117.9Q1253.7 1114.1 1253.7 1109Q1253.7 1105.2 1254.9 1102.1Q1256 1099.1 1258 1096.9Q1260.1 1094.7 1263 1093.5Q1265.8 1092.3 1269.4 1092.3Q1274.2 1092.3 1277.7 1094.4Q1281.2 1096.4 1283.1 1100.2Q1285.1 1103.9 1285.1 1109Q1285.1 1112.8 1284 1115.9Q1282.9 1119 1280.8 1121.2Q1278.7 1123.5 1275.9 1124.6Q1273 1125.8 1269.4 1125.8ZM1269.4 1120.7Q1272.4 1120.7 1274.5 1119.3Q1276.6 1118 1277.7 1115.3Q1278.9 1112.7 1278.9 1109Q1278.9 1103.5 1276.4 1100.4Q1273.9 1097.4 1269.4 1097.4Q1266.4 1097.4 1264.3 1098.8Q1262.2 1100.1 1261.1 1102.7Q1259.9 1105.3 1259.9 1109Q1259.9 1114.5 1262.4 1117.6Q1264.9 1120.7 1269.4 1120.7Z"/>
      <path class="aig-letra" data-letra="R" d="M1308.9 1125.7Q1307.4 1125.7 1306.7 1124.9Q1305.9 1124.1 1305.9 1122.7V1095.8Q1305.9 1094.3 1306.7 1093.5Q1307.5 1092.8 1308.9 1092.8H1320.1Q1325.4 1092.8 1328.3 1095.3Q1331.2 1097.9 1331.2 1102.5Q1331.2 1105.5 1329.9 1107.7Q1328.6 1109.9 1326.1 1111Q1325.1 1111.5 1323.9 1111.8Q1324.7 1112 1325.3 1112.4Q1326.7 1113.3 1327.8 1115.3L1331.2 1121.7Q1331.8 1122.7 1331.8 1123.6Q1331.7 1124.6 1331.1 1125.1Q1330.4 1125.7 1329.2 1125.7Q1327.9 1125.7 1327.1 1125.2Q1326.3 1124.7 1325.7 1123.5L1321.1 1114.9Q1320.2 1113.4 1319.1 1112.8Q1318 1112.3 1316.2 1112.3H1311.8V1122.7Q1311.8 1124.1 1311.1 1124.9Q1310.4 1125.7 1308.9 1125.7ZM1311.8 1107.9H1319Q1322.2 1107.9 1323.9 1106.6Q1325.5 1105.3 1325.5 1102.7Q1325.5 1100.1 1323.9 1098.8Q1322.2 1097.4 1319 1097.4H1311.8Z"/>
      <path class="aig-letra" data-letra="I" d="M1353.4 1125.7Q1351.9 1125.7 1351.2 1124.9Q1350.4 1124.1 1350.4 1122.7V1095.4Q1350.4 1094 1351.2 1093.2Q1351.9 1092.4 1353.4 1092.4Q1354.8 1092.4 1355.6 1093.2Q1356.3 1094 1356.3 1095.4V1122.7Q1356.3 1124.1 1355.6 1124.9Q1354.8 1125.7 1353.4 1125.7Z"/>
      <path class="aig-letra" data-letra="A" d="M1378.6 1125.7Q1377.5 1125.7 1376.8 1125.2Q1376.1 1124.7 1376 1123.8Q1375.9 1123 1376.3 1121.9L1388.5 1094.9Q1389.1 1093.6 1390 1093Q1390.8 1092.4 1392 1092.4Q1393 1092.4 1393.9 1093Q1394.7 1093.6 1395.3 1094.9L1407.6 1121.9Q1408.1 1123 1407.9 1123.9Q1407.8 1124.7 1407.2 1125.2Q1406.5 1125.7 1405.4 1125.7Q1404.2 1125.7 1403.4 1125.1Q1402.7 1124.5 1402.2 1123.2L1399.9 1117.8H1384L1381.7 1123.2Q1381.1 1124.5 1380.4 1125.1Q1379.8 1125.7 1378.6 1125.7ZM1391.9 1099.2 1386 1113.1H1397.8L1392 1099.2Z"/>
    </g>
  </g>
</svg>
