<svg xmlns="http://www.w3.org/2000/svg" viewBox="47 262 4801 675" role="img" aria-labelledby="aig-hor-titulo">
  <title id="aig-hor-titulo">Activos Inmobiliarios Globales · Donde cada propiedad cuenta una historia</title>
  <defs><linearGradient id="aig-hor-degradado-cuerpo" gradientUnits="userSpaceOnUse" x1="0" y1="272" x2="0" y2="927"><stop offset="0" stop-color="#F5515F"/><stop offset="1" stop-color="#A0051C"/></linearGradient><linearGradient id="aig-hor-degradado-cintas" gradientUnits="userSpaceOnUse" x1="0" y1="272" x2="0" y2="776.33"><stop offset="0" stop-color="#F5515F"/><stop offset="1" stop-color="#A0051C"/></linearGradient></defs>
  <g class="aig-isotipo">
    <!-- 1. Cintas del techo (lado derecho): nacen en la cumbre y bajan. El canto negro es la cara lateral de la pierna izquierda. -->
    <g class="aig-cintas">
      <g class="aig-cinta aig-cinta-exterior">
        <path class="aig-franja aig-franja-exterior" fill="url(#aig-hor-degradado-cintas)" d="M858.74 272H862.59L1141.61 775.99H1096.76L838.15 308.88Z"/>
        <path class="aig-canto aig-canto-exterior" fill="#000000" d="M858.74 272H862.59L885.21 312.85L862.69 353.2L838.15 308.88Z"/>
      </g>
      <g class="aig-cinta aig-cinta-interior">
        <path class="aig-franja aig-franja-interior" fill="url(#aig-hor-degradado-cintas)" d="M820.49 340.52L1061.95 776.66H1015.45C914.88 776.66 879.72 728.45 859.47 691.87L742.4 480.41Z"/>
        <path class="aig-canto aig-canto-interior" fill="#000000" d="M820.49 340.52L844.86 384.55L766.77 524.44L742.4 480.41Z"/>
      </g>
    </g>
    <!-- 2. Estelas de velocidad, de arriba abajo. Las "pegadas" terminan escondidas detrás de la pierna izquierda. -->
    <g class="aig-estelas">
      <rect class="aig-estela aig-estela-pegada" data-banda="1" fill="url(#aig-hor-degradado-cuerpo)" x="222.82" y="272" width="377.18" height="64.05" rx="32"/>
      <rect class="aig-estela aig-estela-suelta" data-banda="3" fill="url(#aig-hor-degradado-cuerpo)" x="57" y="399.5" width="231.94" height="64" rx="32"/>
      <rect class="aig-estela aig-estela-pegada" data-banda="3" fill="url(#aig-hor-degradado-cuerpo)" x="323.05" y="400.1" width="156.95" height="64.05" rx="32"/>
      <rect class="aig-estela aig-estela-suelta" data-banda="5" fill="url(#aig-hor-degradado-cuerpo)" x="123.07" y="526.12" width="124.62" height="64" rx="32"/>
      <rect class="aig-estela aig-estela-pegada" data-banda="5" fill="url(#aig-hor-degradado-cuerpo)" x="281.07" y="528.2" width="198.93" height="64.05" rx="32"/>
    </g>
    <!-- 3. Pierna izquierda de la A, con las estelas en negativo recortadas. -->
    <path class="aig-pierna" fill="url(#aig-hor-degradado-cuerpo)" fill-rule="evenodd" d="M500.29 272H860.24L578.56 776.6C543.58 839.26 473.33 927 319.3 927H185.64A29.86 29.86 0 0 1 159.57 882.37L285.76 656.3H468.06A32 32 0 0 0 468.06 592.25H321.52L357.27 528.2H405.42A32 32 0 0 0 405.42 464.15H393.03L428.78 400.1H547.82A32 32 0 0 0 547.82 336.05H464.54ZM525.03 462.91H634.54A32 32 0 0 1 634.54 526.91H525.03A32 32 0 0 1 525.03 462.91Z"/>
    <!-- 4. Ventana. -->
    <rect class="aig-ventana" fill="#000000" x="689.22" y="664.97" width="107.61" height="106.11"/>
  </g>
  <!-- 5. Nombre en Orbitron: la sombra marino va detrás y desplazada; delante, las letras con filo plateado. -->
  <g class="aig-nombre">
    <g class="aig-nombre-sombra" fill="#00264A" stroke="#00264A" stroke-width="7.14" stroke-linejoin="round" opacity="0.89" transform="translate(-5.95 7.14)">
      <g class="aig-palabra" data-palabra="ACTIVOS">
        <path class="aig-letra" data-letra="A" d="M1302.2 547.2V455.7Q1302.2 450.1 1304.9 445.5Q1307.6 440.9 1312.2 438.2Q1316.8 435.5 1322.3 435.5H1393.6Q1399.2 435.5 1403.8 438.2Q1408.5 440.9 1411.2 445.5Q1413.9 450.1 1413.9 455.7V547.2H1397V508.1H1318.9V547.2ZM1318.9 491.4H1397V456.1Q1397 454.6 1395.9 453.4Q1394.8 452.3 1393.1 452.3H1322.8Q1321.3 452.3 1320.1 453.4Q1318.9 454.6 1318.9 456.1Z"/>
        <path class="aig-letra" data-letra="C" d="M1462.9 547.2Q1457.4 547.2 1452.7 544.5Q1448.1 541.8 1445.4 537.2Q1442.7 532.6 1442.7 527V455.7Q1442.7 450.1 1445.4 445.5Q1448.1 440.9 1452.7 438.2Q1457.4 435.5 1462.9 435.5H1554.1V452.3H1465.2Q1462.7 452.3 1461.1 453.9Q1459.5 455.5 1459.5 458V524.7Q1459.5 527.2 1461.1 528.8Q1462.7 530.4 1465.2 530.4H1554.1V547.2Z"/>
        <path class="aig-letra" data-letra="T" d="M1620.8 547.2V452.3H1573.3V435.5H1685.1V452.3H1637.7V547.2Z"/>
        <path class="aig-letra" data-letra="I" d="M1709.8 547.2V435.5H1726.6V547.2Z"/>
        <path class="aig-letra" data-letra="V" d="M1817.3 547.2 1752.6 435.5H1772.2L1825.7 528.3L1878.9 435.5H1898.5L1833.9 547.2Z"/>
        <path class="aig-letra" data-letra="O" d="M1937.6 547.2Q1932.1 547.2 1927.5 544.5Q1922.8 541.8 1920.1 537.2Q1917.4 532.6 1917.4 527V455.7Q1917.4 450.2 1920.1 445.5Q1922.8 440.9 1927.5 438.2Q1932.1 435.5 1937.6 435.5H2008.9Q2014.5 435.5 2019.1 438.2Q2023.7 440.9 2026.4 445.5Q2029.1 450.2 2029.1 455.7V527Q2029.1 532.6 2026.4 537.2Q2023.7 541.8 2019.1 544.5Q2014.5 547.2 2008.9 547.2ZM1938 530.4H2008.4Q2010 530.4 2011.1 529.3Q2012.3 528.1 2012.3 526.6V456.2Q2012.3 454.6 2011.1 453.5Q2010 452.3 2008.4 452.3H1938Q1936.5 452.3 1935.3 453.5Q1934.2 454.6 1934.2 456.2V526.6Q1934.2 528.1 1935.3 529.3Q1936.5 530.4 1938 530.4Z"/>
        <path class="aig-letra" data-letra="S" d="M2075.8 547.2Q2070.2 547.2 2065.6 544.5Q2061 541.8 2058.3 537.2Q2055.6 532.6 2055.6 527V520.5H2072.3V526.6Q2072.3 528.1 2073.5 529.3Q2074.6 530.4 2076.2 530.4H2146.6Q2148.2 530.4 2149.3 529.3Q2150.4 528.1 2150.4 526.6V503.6Q2150.4 502 2149.3 500.9Q2148.2 499.8 2146.6 499.8H2075.8Q2070.2 499.8 2065.6 497.1Q2061 494.3 2058.3 489.7Q2055.6 485.2 2055.6 479.6V455.7Q2055.6 450.2 2058.3 445.5Q2061 440.9 2065.6 438.2Q2070.2 435.5 2075.8 435.5H2147.1Q2152.6 435.5 2157.2 438.2Q2161.8 440.9 2164.6 445.5Q2167.3 450.2 2167.3 455.7V462.3H2150.4V456.2Q2150.4 454.6 2149.3 453.5Q2148.2 452.3 2146.6 452.3H2076.2Q2074.6 452.3 2073.5 453.5Q2072.3 454.6 2072.3 456.2V479.2Q2072.3 480.7 2073.5 481.8Q2074.6 482.9 2076.2 482.9H2147.1Q2152.6 482.9 2157.2 485.7Q2161.8 488.4 2164.6 493Q2167.3 497.5 2167.3 503.1V527Q2167.3 532.6 2164.6 537.2Q2161.8 541.8 2157.2 544.5Q2152.6 547.2 2147.1 547.2Z"/>
      </g>
      <g class="aig-palabra" data-palabra="INMOBILIARIOS">
        <path class="aig-letra" data-letra="I" d="M2250.9 547.2V435.5H2267.6V547.2Z"/>
        <path class="aig-letra" data-letra="N" d="M2300.5 547.2V435.5H2320.5L2395.4 524.6V435.5H2412.2V547.2H2392.2L2317.3 458V547.2Z"/>
        <path class="aig-letra" data-letra="M" d="M2440.7 547.2V435.5H2460.7L2504 487.1L2547.2 435.5H2567.3V547.2H2550.4V458L2504 513.3L2457.5 458V547.2Z"/>
        <path class="aig-letra" data-letra="O" d="M2614.4 547.2Q2608.9 547.2 2604.3 544.5Q2599.6 541.8 2596.9 537.2Q2594.2 532.6 2594.2 527V455.7Q2594.2 450.2 2596.9 445.5Q2599.6 440.9 2604.3 438.2Q2608.9 435.5 2614.4 435.5H2685.7Q2691.3 435.5 2695.9 438.2Q2700.5 440.9 2703.2 445.5Q2705.9 450.2 2705.9 455.7V527Q2705.9 532.6 2703.2 537.2Q2700.5 541.8 2695.9 544.5Q2691.3 547.2 2685.7 547.2ZM2614.8 530.4H2685.2Q2686.8 530.4 2687.9 529.3Q2689.1 528.1 2689.1 526.6V456.2Q2689.1 454.6 2687.9 453.5Q2686.8 452.3 2685.2 452.3H2614.8Q2613.2 452.3 2612.1 453.5Q2611 454.6 2611 456.2V526.6Q2611 528.1 2612.1 529.3Q2613.2 530.4 2614.8 530.4Z"/>
        <path class="aig-letra" data-letra="B" d="M2731.1 547.2V435.5H2818Q2823.4 435.5 2828.1 438.2Q2832.7 440.9 2835.5 445.5Q2838.2 450.1 2838.2 455.7V478.5Q2838.2 480.5 2837.8 482.5Q2837.4 484.5 2836.5 486.2Q2839.6 490.6 2841.2 494.4Q2842.8 498.2 2842.8 502.1V527.1Q2842.8 532.6 2840.1 537.2Q2837.4 541.8 2832.7 544.5Q2828.1 547.2 2822.5 547.2ZM2751.7 530.5H2822Q2823.7 530.5 2824.8 529.3Q2825.9 528.1 2825.9 526.6V502.5Q2825.9 501 2824.8 499.8Q2823.7 498.7 2822 498.7H2751.7Q2750.2 498.7 2749 499.8Q2747.9 501 2747.9 502.5V526.6Q2747.9 528.1 2749 529.3Q2750.2 530.5 2751.7 530.5ZM2751.7 481.9H2817.5Q2819.1 481.9 2820.2 480.7Q2821.3 479.6 2821.3 478V456.1Q2821.3 454.6 2820.2 453.4Q2819.1 452.3 2817.5 452.3H2751.7Q2750.2 452.3 2749 453.4Q2747.9 454.6 2747.9 456.1V478Q2747.9 479.6 2749 480.7Q2750.2 481.9 2751.7 481.9Z"/>
        <path class="aig-letra" data-letra="I" d="M2871.7 547.2V435.5H2888.5V547.2Z"/>
        <path class="aig-letra" data-letra="L" d="M2920.3 547.2V435.3H2937V530.4H3032V547.2Z"/>
        <path class="aig-letra" data-letra="I" d="M3054 547.2V435.5H3070.8V547.2Z"/>
        <path class="aig-letra" data-letra="A" d="M3102.9 547.2V455.7Q3102.9 450.1 3105.6 445.5Q3108.3 440.9 3112.9 438.2Q3117.5 435.5 3123 435.5H3194.3Q3199.8 435.5 3204.5 438.2Q3209.2 440.9 3211.9 445.5Q3214.6 450.1 3214.6 455.7V547.2H3197.7V508.1H3119.6V547.2ZM3119.6 491.4H3197.7V456.1Q3197.7 454.6 3196.6 453.4Q3195.5 452.3 3193.8 452.3H3123.5Q3122 452.3 3120.8 453.4Q3119.6 454.6 3119.6 456.1Z"/>
        <path class="aig-letra" data-letra="R" d="M3333.6 547.2 3300.3 507.3 3258.9 507.5V547.2H3242.1V435.7H3333.5Q3339.1 435.7 3343.7 438.5Q3348.4 441.2 3351.1 445.8Q3353.8 450.4 3353.8 455.8V487.2Q3353.8 492.8 3351.1 497.3Q3348.4 501.9 3343.7 504.6Q3339.1 507.3 3333.5 507.3H3322.2L3353.2 544.1V547.2ZM3262.7 490.4H3333Q3334.7 490.4 3335.8 489.3Q3336.9 488.3 3336.9 486.7V456.3Q3336.9 454.7 3335.8 453.6Q3334.7 452.4 3333 452.4H3262.7Q3261.2 452.4 3260 453.6Q3258.9 454.7 3258.9 456.3V486.7Q3258.9 488.3 3260 489.3Q3261.2 490.4 3262.7 490.4Z"/>
        <path class="aig-letra" data-letra="I" d="M3382 547.2V435.5H3398.8V547.2Z"/>
        <path class="aig-letra" data-letra="O" d="M3449.1 547.2Q3443.6 547.2 3439 544.5Q3434.3 541.8 3431.6 537.2Q3428.9 532.6 3428.9 527V455.7Q3428.9 450.2 3431.6 445.5Q3434.3 440.9 3439 438.2Q3443.6 435.5 3449.1 435.5H3520.4Q3526 435.5 3530.6 438.2Q3535.2 440.9 3537.9 445.5Q3540.6 450.2 3540.6 455.7V527Q3540.6 532.6 3537.9 537.2Q3535.2 541.8 3530.6 544.5Q3526 547.2 3520.4 547.2ZM3449.5 530.4H3519.9Q3521.5 530.4 3522.6 529.3Q3523.8 528.1 3523.8 526.6V456.2Q3523.8 454.6 3522.6 453.5Q3521.5 452.3 3519.9 452.3H3449.5Q3448 452.3 3446.8 453.5Q3445.7 454.6 3445.7 456.2V526.6Q3445.7 528.1 3446.8 529.3Q3448 530.4 3449.5 530.4Z"/>
        <path class="aig-letra" data-letra="S" d="M3587.3 547.2Q3581.7 547.2 3577.1 544.5Q3572.5 541.8 3569.8 537.2Q3567.1 532.6 3567.1 527V520.5H3583.8V526.6Q3583.8 528.1 3585 529.3Q3586.1 530.4 3587.7 530.4H3658.1Q3659.7 530.4 3660.8 529.3Q3661.9 528.1 3661.9 526.6V503.6Q3661.9 502 3660.8 500.9Q3659.7 499.8 3658.1 499.8H3587.3Q3581.7 499.8 3577.1 497.1Q3572.5 494.3 3569.8 489.7Q3567.1 485.2 3567.1 479.6V455.7Q3567.1 450.2 3569.8 445.5Q3572.5 440.9 3577.1 438.2Q3581.7 435.5 3587.3 435.5H3658.6Q3664.1 435.5 3668.7 438.2Q3673.3 440.9 3676.1 445.5Q3678.8 450.2 3678.8 455.7V462.3H3661.9V456.2Q3661.9 454.6 3660.8 453.5Q3659.7 452.3 3658.1 452.3H3587.7Q3586.1 452.3 3585 453.5Q3583.8 454.6 3583.8 456.2V479.2Q3583.8 480.7 3585 481.8Q3586.1 482.9 3587.7 482.9H3658.6Q3664.1 482.9 3668.7 485.7Q3673.3 488.4 3676.1 493Q3678.8 497.5 3678.8 503.1V527Q3678.8 532.6 3676.1 537.2Q3673.3 541.8 3668.7 544.5Q3664.1 547.2 3658.6 547.2Z"/>
      </g>
      <g class="aig-palabra" data-palabra="GLOBALES">
        <path class="aig-letra" data-letra="G" d="M3783 547.2Q3777.4 547.2 3772.8 544.5Q3768.2 541.8 3765.5 537.2Q3762.8 532.6 3762.8 527V455.7Q3762.8 450.2 3765.5 445.5Q3768.2 440.9 3772.8 438.2Q3777.4 435.5 3783 435.5H3854.2Q3859.8 435.5 3864.4 438.2Q3869 440.9 3871.8 445.5Q3874.5 450.2 3874.5 455.7V462.4H3857.6V456.2Q3857.6 454.6 3856.5 453.5Q3855.4 452.3 3853.8 452.3H3783.4Q3781.8 452.3 3780.7 453.5Q3779.5 454.6 3779.5 456.2V526.6Q3779.5 528.1 3780.7 529.3Q3781.8 530.4 3783.4 530.4H3853.8Q3855.4 530.4 3856.5 529.3Q3857.6 528.1 3857.6 526.6V502.9H3831.2V486H3874.5V527Q3874.5 532.6 3871.8 537.2Q3869 541.8 3864.4 544.5Q3859.8 547.2 3854.2 547.2Z"/>
        <path class="aig-letra" data-letra="L" d="M3901.7 547.2V435.3H3918.5V530.4H4013.5V547.2Z"/>
        <path class="aig-letra" data-letra="O" d="M4054.6 547.2Q4049 547.2 4044.4 544.5Q4039.8 541.8 4037.1 537.2Q4034.3 532.6 4034.3 527V455.7Q4034.3 450.2 4037.1 445.5Q4039.8 440.9 4044.4 438.2Q4049 435.5 4054.6 435.5H4125.9Q4131.4 435.5 4136 438.2Q4140.6 440.9 4143.3 445.5Q4146.1 450.2 4146.1 455.7V527Q4146.1 532.6 4143.3 537.2Q4140.6 541.8 4136 544.5Q4131.4 547.2 4125.9 547.2ZM4054.9 530.4H4125.4Q4126.9 530.4 4128.1 529.3Q4129.2 528.1 4129.2 526.6V456.2Q4129.2 454.6 4128.1 453.5Q4126.9 452.3 4125.4 452.3H4054.9Q4053.4 452.3 4052.2 453.5Q4051.1 454.6 4051.1 456.2V526.6Q4051.1 528.1 4052.2 529.3Q4053.4 530.4 4054.9 530.4Z"/>
        <path class="aig-letra" data-letra="B" d="M4172.5 547.2V435.5H4259.4Q4264.8 435.5 4269.5 438.2Q4274.1 440.9 4276.9 445.5Q4279.6 450.1 4279.6 455.7V478.5Q4279.6 480.5 4279.2 482.5Q4278.8 484.5 4277.9 486.2Q4281 490.6 4282.6 494.4Q4284.2 498.2 4284.2 502.1V527.1Q4284.2 532.6 4281.5 537.2Q4278.8 541.8 4274.1 544.5Q4269.5 547.2 4263.9 547.2ZM4193.1 530.5H4263.4Q4265.1 530.5 4266.2 529.3Q4267.3 528.1 4267.3 526.6V502.5Q4267.3 501 4266.2 499.8Q4265.1 498.7 4263.4 498.7H4193.1Q4191.6 498.7 4190.4 499.8Q4189.3 501 4189.3 502.5V526.6Q4189.3 528.1 4190.4 529.3Q4191.6 530.5 4193.1 530.5ZM4193.1 481.9H4258.9Q4260.5 481.9 4261.6 480.7Q4262.7 479.6 4262.7 478V456.1Q4262.7 454.6 4261.6 453.4Q4260.5 452.3 4258.9 452.3H4193.1Q4191.6 452.3 4190.4 453.4Q4189.3 454.6 4189.3 456.1V478Q4189.3 479.6 4190.4 480.7Q4191.6 481.9 4193.1 481.9Z"/>
        <path class="aig-letra" data-letra="A" d="M4312.5 547.2V455.7Q4312.5 450.1 4315.2 445.5Q4317.9 440.9 4322.5 438.2Q4327.1 435.5 4332.7 435.5H4403.9Q4409.5 435.5 4414.1 438.2Q4418.8 440.9 4421.5 445.5Q4424.2 450.1 4424.2 455.7V547.2H4407.3V508.1H4329.2V547.2ZM4329.2 491.4H4407.3V456.1Q4407.3 454.6 4406.2 453.4Q4405.1 452.3 4403.4 452.3H4333.1Q4331.6 452.3 4330.4 453.4Q4329.2 454.6 4329.2 456.1Z"/>
        <path class="aig-letra" data-letra="L" d="M4453.2 547.2V435.3H4470V530.4H4565V547.2Z"/>
        <path class="aig-letra" data-letra="E" d="M4582.9 547.2V435.5H4685.3V452.3H4599.8V482.9H4668.6V499.8H4599.8V530.4H4685.3V547.2Z"/>
        <path class="aig-letra" data-letra="S" d="M4733.4 547.2Q4727.8 547.2 4723.2 544.5Q4718.6 541.8 4715.9 537.2Q4713.2 532.6 4713.2 527V520.5H4729.9V526.6Q4729.9 528.1 4731.1 529.3Q4732.2 530.4 4733.8 530.4H4804.2Q4805.8 530.4 4806.9 529.3Q4808 528.1 4808 526.6V503.6Q4808 502 4806.9 500.9Q4805.8 499.8 4804.2 499.8H4733.4Q4727.8 499.8 4723.2 497.1Q4718.6 494.3 4715.9 489.7Q4713.2 485.2 4713.2 479.6V455.7Q4713.2 450.2 4715.9 445.5Q4718.6 440.9 4723.2 438.2Q4727.8 435.5 4733.4 435.5H4804.7Q4810.2 435.5 4814.8 438.2Q4819.4 440.9 4822.2 445.5Q4824.9 450.2 4824.9 455.7V462.3H4808V456.2Q4808 454.6 4806.9 453.5Q4805.8 452.3 4804.2 452.3H4733.8Q4732.2 452.3 4731.1 453.5Q4729.9 454.6 4729.9 456.2V479.2Q4729.9 480.7 4731.1 481.8Q4732.2 482.9 4733.8 482.9H4804.7Q4810.2 482.9 4814.8 485.7Q4819.4 488.4 4822.2 493Q4824.9 497.5 4824.9 503.1V527Q4824.9 532.6 4822.2 537.2Q4819.4 541.8 4814.8 544.5Q4810.2 547.2 4804.7 547.2Z"/>
      </g>
    </g>
    <g class="aig-nombre-letras" fill="#343434" stroke="#EDF0F5" stroke-width="7.14" stroke-linejoin="round" paint-order="stroke">
      <g class="aig-palabra" data-palabra="ACTIVOS">
        <path class="aig-letra" data-letra="A" d="M1302.2 547.2V455.7Q1302.2 450.1 1304.9 445.5Q1307.6 440.9 1312.2 438.2Q1316.8 435.5 1322.3 435.5H1393.6Q1399.2 435.5 1403.8 438.2Q1408.5 440.9 1411.2 445.5Q1413.9 450.1 1413.9 455.7V547.2H1397V508.1H1318.9V547.2ZM1318.9 491.4H1397V456.1Q1397 454.6 1395.9 453.4Q1394.8 452.3 1393.1 452.3H1322.8Q1321.3 452.3 1320.1 453.4Q1318.9 454.6 1318.9 456.1Z"/>
        <path class="aig-letra" data-letra="C" d="M1462.9 547.2Q1457.4 547.2 1452.7 544.5Q1448.1 541.8 1445.4 537.2Q1442.7 532.6 1442.7 527V455.7Q1442.7 450.1 1445.4 445.5Q1448.1 440.9 1452.7 438.2Q1457.4 435.5 1462.9 435.5H1554.1V452.3H1465.2Q1462.7 452.3 1461.1 453.9Q1459.5 455.5 1459.5 458V524.7Q1459.5 527.2 1461.1 528.8Q1462.7 530.4 1465.2 530.4H1554.1V547.2Z"/>
        <path class="aig-letra" data-letra="T" d="M1620.8 547.2V452.3H1573.3V435.5H1685.1V452.3H1637.7V547.2Z"/>
        <path class="aig-letra" data-letra="I" d="M1709.8 547.2V435.5H1726.6V547.2Z"/>
        <path class="aig-letra" data-letra="V" d="M1817.3 547.2 1752.6 435.5H1772.2L1825.7 528.3L1878.9 435.5H1898.5L1833.9 547.2Z"/>
        <path class="aig-letra" data-letra="O" d="M1937.6 547.2Q1932.1 547.2 1927.5 544.5Q1922.8 541.8 1920.1 537.2Q1917.4 532.6 1917.4 527V455.7Q1917.4 450.2 1920.1 445.5Q1922.8 440.9 1927.5 438.2Q1932.1 435.5 1937.6 435.5H2008.9Q2014.5 435.5 2019.1 438.2Q2023.7 440.9 2026.4 445.5Q2029.1 450.2 2029.1 455.7V527Q2029.1 532.6 2026.4 537.2Q2023.7 541.8 2019.1 544.5Q2014.5 547.2 2008.9 547.2ZM1938 530.4H2008.4Q2010 530.4 2011.1 529.3Q2012.3 528.1 2012.3 526.6V456.2Q2012.3 454.6 2011.1 453.5Q2010 452.3 2008.4 452.3H1938Q1936.5 452.3 1935.3 453.5Q1934.2 454.6 1934.2 456.2V526.6Q1934.2 528.1 1935.3 529.3Q1936.5 530.4 1938 530.4Z"/>
        <path class="aig-letra" data-letra="S" d="M2075.8 547.2Q2070.2 547.2 2065.6 544.5Q2061 541.8 2058.3 537.2Q2055.6 532.6 2055.6 527V520.5H2072.3V526.6Q2072.3 528.1 2073.5 529.3Q2074.6 530.4 2076.2 530.4H2146.6Q2148.2 530.4 2149.3 529.3Q2150.4 528.1 2150.4 526.6V503.6Q2150.4 502 2149.3 500.9Q2148.2 499.8 2146.6 499.8H2075.8Q2070.2 499.8 2065.6 497.1Q2061 494.3 2058.3 489.7Q2055.6 485.2 2055.6 479.6V455.7Q2055.6 450.2 2058.3 445.5Q2061 440.9 2065.6 438.2Q2070.2 435.5 2075.8 435.5H2147.1Q2152.6 435.5 2157.2 438.2Q2161.8 440.9 2164.6 445.5Q2167.3 450.2 2167.3 455.7V462.3H2150.4V456.2Q2150.4 454.6 2149.3 453.5Q2148.2 452.3 2146.6 452.3H2076.2Q2074.6 452.3 2073.5 453.5Q2072.3 454.6 2072.3 456.2V479.2Q2072.3 480.7 2073.5 481.8Q2074.6 482.9 2076.2 482.9H2147.1Q2152.6 482.9 2157.2 485.7Q2161.8 488.4 2164.6 493Q2167.3 497.5 2167.3 503.1V527Q2167.3 532.6 2164.6 537.2Q2161.8 541.8 2157.2 544.5Q2152.6 547.2 2147.1 547.2Z"/>
      </g>
      <g class="aig-palabra" data-palabra="INMOBILIARIOS">
        <path class="aig-letra" data-letra="I" d="M2250.9 547.2V435.5H2267.6V547.2Z"/>
        <path class="aig-letra" data-letra="N" d="M2300.5 547.2V435.5H2320.5L2395.4 524.6V435.5H2412.2V547.2H2392.2L2317.3 458V547.2Z"/>
        <path class="aig-letra" data-letra="M" d="M2440.7 547.2V435.5H2460.7L2504 487.1L2547.2 435.5H2567.3V547.2H2550.4V458L2504 513.3L2457.5 458V547.2Z"/>
        <path class="aig-letra" data-letra="O" d="M2614.4 547.2Q2608.9 547.2 2604.3 544.5Q2599.6 541.8 2596.9 537.2Q2594.2 532.6 2594.2 527V455.7Q2594.2 450.2 2596.9 445.5Q2599.6 440.9 2604.3 438.2Q2608.9 435.5 2614.4 435.5H2685.7Q2691.3 435.5 2695.9 438.2Q2700.5 440.9 2703.2 445.5Q2705.9 450.2 2705.9 455.7V527Q2705.9 532.6 2703.2 537.2Q2700.5 541.8 2695.9 544.5Q2691.3 547.2 2685.7 547.2ZM2614.8 530.4H2685.2Q2686.8 530.4 2687.9 529.3Q2689.1 528.1 2689.1 526.6V456.2Q2689.1 454.6 2687.9 453.5Q2686.8 452.3 2685.2 452.3H2614.8Q2613.2 452.3 2612.1 453.5Q2611 454.6 2611 456.2V526.6Q2611 528.1 2612.1 529.3Q2613.2 530.4 2614.8 530.4Z"/>
        <path class="aig-letra" data-letra="B" d="M2731.1 547.2V435.5H2818Q2823.4 435.5 2828.1 438.2Q2832.7 440.9 2835.5 445.5Q2838.2 450.1 2838.2 455.7V478.5Q2838.2 480.5 2837.8 482.5Q2837.4 484.5 2836.5 486.2Q2839.6 490.6 2841.2 494.4Q2842.8 498.2 2842.8 502.1V527.1Q2842.8 532.6 2840.1 537.2Q2837.4 541.8 2832.7 544.5Q2828.1 547.2 2822.5 547.2ZM2751.7 530.5H2822Q2823.7 530.5 2824.8 529.3Q2825.9 528.1 2825.9 526.6V502.5Q2825.9 501 2824.8 499.8Q2823.7 498.7 2822 498.7H2751.7Q2750.2 498.7 2749 499.8Q2747.9 501 2747.9 502.5V526.6Q2747.9 528.1 2749 529.3Q2750.2 530.5 2751.7 530.5ZM2751.7 481.9H2817.5Q2819.1 481.9 2820.2 480.7Q2821.3 479.6 2821.3 478V456.1Q2821.3 454.6 2820.2 453.4Q2819.1 452.3 2817.5 452.3H2751.7Q2750.2 452.3 2749 453.4Q2747.9 454.6 2747.9 456.1V478Q2747.9 479.6 2749 480.7Q2750.2 481.9 2751.7 481.9Z"/>
        <path class="aig-letra" data-letra="I" d="M2871.7 547.2V435.5H2888.5V547.2Z"/>
        <path class="aig-letra" data-letra="L" d="M2920.3 547.2V435.3H2937V530.4H3032V547.2Z"/>
        <path class="aig-letra" data-letra="I" d="M3054 547.2V435.5H3070.8V547.2Z"/>
        <path class="aig-letra" data-letra="A" d="M3102.9 547.2V455.7Q3102.9 450.1 3105.6 445.5Q3108.3 440.9 3112.9 438.2Q3117.5 435.5 3123 435.5H3194.3Q3199.8 435.5 3204.5 438.2Q3209.2 440.9 3211.9 445.5Q3214.6 450.1 3214.6 455.7V547.2H3197.7V508.1H3119.6V547.2ZM3119.6 491.4H3197.7V456.1Q3197.7 454.6 3196.6 453.4Q3195.5 452.3 3193.8 452.3H3123.5Q3122 452.3 3120.8 453.4Q3119.6 454.6 3119.6 456.1Z"/>
        <path class="aig-letra" data-letra="R" d="M3333.6 547.2 3300.3 507.3 3258.9 507.5V547.2H3242.1V435.7H3333.5Q3339.1 435.7 3343.7 438.5Q3348.4 441.2 3351.1 445.8Q3353.8 450.4 3353.8 455.8V487.2Q3353.8 492.8 3351.1 497.3Q3348.4 501.9 3343.7 504.6Q3339.1 507.3 3333.5 507.3H3322.2L3353.2 544.1V547.2ZM3262.7 490.4H3333Q3334.7 490.4 3335.8 489.3Q3336.9 488.3 3336.9 486.7V456.3Q3336.9 454.7 3335.8 453.6Q3334.7 452.4 3333 452.4H3262.7Q3261.2 452.4 3260 453.6Q3258.9 454.7 3258.9 456.3V486.7Q3258.9 488.3 3260 489.3Q3261.2 490.4 3262.7 490.4Z"/>
        <path class="aig-letra" data-letra="I" d="M3382 547.2V435.5H3398.8V547.2Z"/>
        <path class="aig-letra" data-letra="O" d="M3449.1 547.2Q3443.6 547.2 3439 544.5Q3434.3 541.8 3431.6 537.2Q3428.9 532.6 3428.9 527V455.7Q3428.9 450.2 3431.6 445.5Q3434.3 440.9 3439 438.2Q3443.6 435.5 3449.1 435.5H3520.4Q3526 435.5 3530.6 438.2Q3535.2 440.9 3537.9 445.5Q3540.6 450.2 3540.6 455.7V527Q3540.6 532.6 3537.9 537.2Q3535.2 541.8 3530.6 544.5Q3526 547.2 3520.4 547.2ZM3449.5 530.4H3519.9Q3521.5 530.4 3522.6 529.3Q3523.8 528.1 3523.8 526.6V456.2Q3523.8 454.6 3522.6 453.5Q3521.5 452.3 3519.9 452.3H3449.5Q3448 452.3 3446.8 453.5Q3445.7 454.6 3445.7 456.2V526.6Q3445.7 528.1 3446.8 529.3Q3448 530.4 3449.5 530.4Z"/>
        <path class="aig-letra" data-letra="S" d="M3587.3 547.2Q3581.7 547.2 3577.1 544.5Q3572.5 541.8 3569.8 537.2Q3567.1 532.6 3567.1 527V520.5H3583.8V526.6Q3583.8 528.1 3585 529.3Q3586.1 530.4 3587.7 530.4H3658.1Q3659.7 530.4 3660.8 529.3Q3661.9 528.1 3661.9 526.6V503.6Q3661.9 502 3660.8 500.9Q3659.7 499.8 3658.1 499.8H3587.3Q3581.7 499.8 3577.1 497.1Q3572.5 494.3 3569.8 489.7Q3567.1 485.2 3567.1 479.6V455.7Q3567.1 450.2 3569.8 445.5Q3572.5 440.9 3577.1 438.2Q3581.7 435.5 3587.3 435.5H3658.6Q3664.1 435.5 3668.7 438.2Q3673.3 440.9 3676.1 445.5Q3678.8 450.2 3678.8 455.7V462.3H3661.9V456.2Q3661.9 454.6 3660.8 453.5Q3659.7 452.3 3658.1 452.3H3587.7Q3586.1 452.3 3585 453.5Q3583.8 454.6 3583.8 456.2V479.2Q3583.8 480.7 3585 481.8Q3586.1 482.9 3587.7 482.9H3658.6Q3664.1 482.9 3668.7 485.7Q3673.3 488.4 3676.1 493Q3678.8 497.5 3678.8 503.1V527Q3678.8 532.6 3676.1 537.2Q3673.3 541.8 3668.7 544.5Q3664.1 547.2 3658.6 547.2Z"/>
      </g>
      <g class="aig-palabra" data-palabra="GLOBALES">
        <path class="aig-letra" data-letra="G" d="M3783 547.2Q3777.4 547.2 3772.8 544.5Q3768.2 541.8 3765.5 537.2Q3762.8 532.6 3762.8 527V455.7Q3762.8 450.2 3765.5 445.5Q3768.2 440.9 3772.8 438.2Q3777.4 435.5 3783 435.5H3854.2Q3859.8 435.5 3864.4 438.2Q3869 440.9 3871.8 445.5Q3874.5 450.2 3874.5 455.7V462.4H3857.6V456.2Q3857.6 454.6 3856.5 453.5Q3855.4 452.3 3853.8 452.3H3783.4Q3781.8 452.3 3780.7 453.5Q3779.5 454.6 3779.5 456.2V526.6Q3779.5 528.1 3780.7 529.3Q3781.8 530.4 3783.4 530.4H3853.8Q3855.4 530.4 3856.5 529.3Q3857.6 528.1 3857.6 526.6V502.9H3831.2V486H3874.5V527Q3874.5 532.6 3871.8 537.2Q3869 541.8 3864.4 544.5Q3859.8 547.2 3854.2 547.2Z"/>
        <path class="aig-letra" data-letra="L" d="M3901.7 547.2V435.3H3918.5V530.4H4013.5V547.2Z"/>
        <path class="aig-letra" data-letra="O" d="M4054.6 547.2Q4049 547.2 4044.4 544.5Q4039.8 541.8 4037.1 537.2Q4034.3 532.6 4034.3 527V455.7Q4034.3 450.2 4037.1 445.5Q4039.8 440.9 4044.4 438.2Q4049 435.5 4054.6 435.5H4125.9Q4131.4 435.5 4136 438.2Q4140.6 440.9 4143.3 445.5Q4146.1 450.2 4146.1 455.7V527Q4146.1 532.6 4143.3 537.2Q4140.6 541.8 4136 544.5Q4131.4 547.2 4125.9 547.2ZM4054.9 530.4H4125.4Q4126.9 530.4 4128.1 529.3Q4129.2 528.1 4129.2 526.6V456.2Q4129.2 454.6 4128.1 453.5Q4126.9 452.3 4125.4 452.3H4054.9Q4053.4 452.3 4052.2 453.5Q4051.1 454.6 4051.1 456.2V526.6Q4051.1 528.1 4052.2 529.3Q4053.4 530.4 4054.9 530.4Z"/>
        <path class="aig-letra" data-letra="B" d="M4172.5 547.2V435.5H4259.4Q4264.8 435.5 4269.5 438.2Q4274.1 440.9 4276.9 445.5Q4279.6 450.1 4279.6 455.7V478.5Q4279.6 480.5 4279.2 482.5Q4278.8 484.5 4277.9 486.2Q4281 490.6 4282.6 494.4Q4284.2 498.2 4284.2 502.1V527.1Q4284.2 532.6 4281.5 537.2Q4278.8 541.8 4274.1 544.5Q4269.5 547.2 4263.9 547.2ZM4193.1 530.5H4263.4Q4265.1 530.5 4266.2 529.3Q4267.3 528.1 4267.3 526.6V502.5Q4267.3 501 4266.2 499.8Q4265.1 498.7 4263.4 498.7H4193.1Q4191.6 498.7 4190.4 499.8Q4189.3 501 4189.3 502.5V526.6Q4189.3 528.1 4190.4 529.3Q4191.6 530.5 4193.1 530.5ZM4193.1 481.9H4258.9Q4260.5 481.9 4261.6 480.7Q4262.7 479.6 4262.7 478V456.1Q4262.7 454.6 4261.6 453.4Q4260.5 452.3 4258.9 452.3H4193.1Q4191.6 452.3 4190.4 453.4Q4189.3 454.6 4189.3 456.1V478Q4189.3 479.6 4190.4 480.7Q4191.6 481.9 4193.1 481.9Z"/>
        <path class="aig-letra" data-letra="A" d="M4312.5 547.2V455.7Q4312.5 450.1 4315.2 445.5Q4317.9 440.9 4322.5 438.2Q4327.1 435.5 4332.7 435.5H4403.9Q4409.5 435.5 4414.1 438.2Q4418.8 440.9 4421.5 445.5Q4424.2 450.1 4424.2 455.7V547.2H4407.3V508.1H4329.2V547.2ZM4329.2 491.4H4407.3V456.1Q4407.3 454.6 4406.2 453.4Q4405.1 452.3 4403.4 452.3H4333.1Q4331.6 452.3 4330.4 453.4Q4329.2 454.6 4329.2 456.1Z"/>
        <path class="aig-letra" data-letra="L" d="M4453.2 547.2V435.3H4470V530.4H4565V547.2Z"/>
        <path class="aig-letra" data-letra="E" d="M4582.9 547.2V435.5H4685.3V452.3H4599.8V482.9H4668.6V499.8H4599.8V530.4H4685.3V547.2Z"/>
        <path class="aig-letra" data-letra="S" d="M4733.4 547.2Q4727.8 547.2 4723.2 544.5Q4718.6 541.8 4715.9 537.2Q4713.2 532.6 4713.2 527V520.5H4729.9V526.6Q4729.9 528.1 4731.1 529.3Q4732.2 530.4 4733.8 530.4H4804.2Q4805.8 530.4 4806.9 529.3Q4808 528.1 4808 526.6V503.6Q4808 502 4806.9 500.9Q4805.8 499.8 4804.2 499.8H4733.4Q4727.8 499.8 4723.2 497.1Q4718.6 494.3 4715.9 489.7Q4713.2 485.2 4713.2 479.6V455.7Q4713.2 450.2 4715.9 445.5Q4718.6 440.9 4723.2 438.2Q4727.8 435.5 4733.4 435.5H4804.7Q4810.2 435.5 4814.8 438.2Q4819.4 440.9 4822.2 445.5Q4824.9 450.2 4824.9 455.7V462.3H4808V456.2Q4808 454.6 4806.9 453.5Q4805.8 452.3 4804.2 452.3H4733.8Q4732.2 452.3 4731.1 453.5Q4729.9 454.6 4729.9 456.2V479.2Q4729.9 480.7 4731.1 481.8Q4732.2 482.9 4733.8 482.9H4804.7Q4810.2 482.9 4814.8 485.7Q4819.4 488.4 4822.2 493Q4824.9 497.5 4824.9 503.1V527Q4824.9 532.6 4822.2 537.2Q4819.4 541.8 4814.8 544.5Q4810.2 547.2 4804.7 547.2Z"/>
      </g>
    </g>
  </g>
  <!-- 6. Lema en Nunito. -->
  <g class="aig-lema" fill="#000000">
    <g class="aig-palabra" data-palabra="DONDE">
      <path class="aig-letra" data-letra="D" d="M1324.3 712.4Q1320.8 712.4 1319 710.5Q1317.2 708.7 1317.2 705.2V645.7Q1317.2 642.2 1319 640.4Q1320.8 638.6 1324.3 638.6H1344.6Q1363.1 638.6 1373.2 648.1Q1383.3 657.6 1383.3 675.4Q1383.3 684.3 1380.8 691.2Q1378.2 698 1373.2 702.7Q1368.3 707.4 1361.1 709.9Q1353.9 712.4 1344.6 712.4ZM1330.6 701.3H1343.8Q1350.3 701.3 1355 699.6Q1359.8 698 1363 694.8Q1366.2 691.6 1367.7 686.8Q1369.3 681.9 1369.3 675.4Q1369.3 662.4 1362.9 656Q1356.5 649.6 1343.8 649.6H1330.6Z"/>
      <path class="aig-letra" data-letra="O" d="M1451.9 713.4Q1441.2 713.4 1433.2 708.7Q1425.2 704 1420.8 695.4Q1416.4 686.9 1416.4 675.4Q1416.4 666.7 1418.9 659.8Q1421.4 652.8 1426.1 647.8Q1430.7 642.8 1437.3 640.2Q1443.8 637.5 1451.9 637.5Q1462.7 637.5 1470.6 642.2Q1478.6 646.8 1483 655.3Q1487.4 663.8 1487.4 675.3Q1487.4 684 1484.8 691Q1482.3 698 1477.7 703Q1473 708.1 1466.5 710.7Q1459.9 713.4 1451.9 713.4ZM1451.9 701.9Q1458.7 701.9 1463.4 698.7Q1468.2 695.6 1470.8 689.6Q1473.3 683.7 1473.3 675.4Q1473.3 662.8 1467.7 655.9Q1462.1 649 1451.9 649Q1445.2 649 1440.4 652.1Q1435.5 655.2 1433 661.1Q1430.4 667 1430.4 675.4Q1430.4 687.9 1436.1 694.9Q1441.7 701.9 1451.9 701.9Z"/>
      <path class="aig-letra" data-letra="N" d="M1533.8 713.2Q1530.7 713.2 1529.1 711.5Q1527.5 709.8 1527.5 706.7V644.4Q1527.5 641.2 1529.1 639.4Q1530.7 637.7 1533.3 637.7Q1535.8 637.7 1537 638.6Q1538.2 639.5 1539.8 641.6L1577.2 690.1V644.1Q1577.2 641.1 1578.8 639.4Q1580.4 637.7 1583.5 637.7Q1586.5 637.7 1588.1 639.4Q1589.7 641.1 1589.7 644.1V706.9Q1589.7 709.8 1588.2 711.5Q1586.7 713.2 1584.2 713.2Q1581.8 713.2 1580.4 712.2Q1579 711.3 1577.3 709.2L1539.9 660.6V706.7Q1539.9 709.8 1538.4 711.5Q1536.8 713.2 1533.8 713.2Z"/>
      <path class="aig-letra" data-letra="D" d="M1634.8 712.4Q1631.3 712.4 1629.5 710.5Q1627.6 708.7 1627.6 705.2V645.7Q1627.6 642.2 1629.5 640.4Q1631.3 638.6 1634.8 638.6H1655.1Q1673.6 638.6 1683.7 648.1Q1693.8 657.6 1693.8 675.4Q1693.8 684.3 1691.2 691.2Q1688.7 698 1683.7 702.7Q1678.7 707.4 1671.5 709.9Q1664.4 712.4 1655.1 712.4ZM1641 701.3H1654.2Q1660.7 701.3 1665.5 699.6Q1670.2 698 1673.4 694.8Q1676.6 691.6 1678.2 686.8Q1679.8 681.9 1679.8 675.4Q1679.8 662.4 1673.4 656Q1667 649.6 1654.2 649.6H1641Z"/>
      <path class="aig-letra" data-letra="E" d="M1734 712.4Q1730.6 712.4 1728.8 710.5Q1726.9 708.7 1726.9 705.2V645.7Q1726.9 642.2 1728.8 640.4Q1730.6 638.6 1734 638.6H1771.4Q1774 638.6 1775.4 639.9Q1776.9 641.3 1776.9 643.8Q1776.9 646.4 1775.4 647.8Q1774 649.2 1771.4 649.2H1739.8V669.5H1769.1Q1771.8 669.5 1773.2 670.9Q1774.5 672.3 1774.5 674.9Q1774.5 677.5 1773.2 678.9Q1771.8 680.2 1769.1 680.2H1739.8V701.7H1771.4Q1774 701.7 1775.4 703Q1776.9 704.4 1776.9 707Q1776.9 709.6 1775.4 711Q1774 712.4 1771.4 712.4Z"/>
    </g>
    <g class="aig-palabra" data-palabra="CADA">
      <path class="aig-letra" data-letra="C" d="M1905.2 713.4Q1893.6 713.4 1885.4 708.7Q1877.2 704.1 1872.8 695.5Q1868.4 687 1868.4 675.4Q1868.4 666.7 1870.9 659.8Q1873.4 652.8 1878.1 647.8Q1882.9 642.8 1889.7 640.2Q1896.6 637.5 1905.2 637.5Q1910.9 637.5 1916.5 639Q1922 640.4 1926.2 643.2Q1928.4 644.5 1929.1 646.5Q1929.9 648.4 1929.4 650.2Q1929 652.1 1927.7 653.3Q1926.4 654.6 1924.5 654.7Q1922.5 654.9 1920.2 653.4Q1917 651.3 1913.2 650.4Q1909.4 649.4 1905.6 649.4Q1898.1 649.4 1893 652.5Q1887.9 655.5 1885.3 661.3Q1882.6 667 1882.6 675.4Q1882.6 683.7 1885.3 689.5Q1887.9 695.4 1893 698.4Q1898.1 701.5 1905.6 701.5Q1909.5 701.5 1913.4 700.5Q1917.3 699.5 1920.7 697.4Q1923.1 696 1924.9 696.2Q1926.7 696.3 1928 697.5Q1929.2 698.6 1929.6 700.4Q1930.1 702.1 1929.4 703.9Q1928.8 705.8 1926.9 707.1Q1922.7 710.2 1916.9 711.8Q1911.1 713.4 1905.2 713.4Z"/>
      <path class="aig-letra" data-letra="A" d="M1965.8 713.2Q1963.2 713.2 1961.7 712Q1960.2 710.9 1959.9 708.9Q1959.6 707 1960.6 704.6L1988.3 643.4Q1989.6 640.3 1991.6 639Q1993.5 637.7 1996 637.7Q1998.4 637.7 2000.3 639Q2002.3 640.3 2003.6 643.4L2031.4 704.6Q2032.5 707 2032.2 709Q2031.9 711 2030.4 712.1Q2029 713.2 2026.6 713.2Q2023.6 713.2 2022 711.8Q2020.4 710.4 2019.1 707.4L2013.9 695.3H1977.9L1972.8 707.4Q1971.4 710.5 1969.9 711.8Q1968.5 713.2 1965.8 713.2ZM1995.8 653.1 1982.5 684.6H2009.3L1996 653.1Z"/>
      <path class="aig-letra" data-letra="D" d="M2076.5 712.4Q2073.1 712.4 2071.2 710.5Q2069.4 708.7 2069.4 705.2V645.7Q2069.4 642.2 2071.2 640.4Q2073.1 638.6 2076.5 638.6H2096.8Q2115.4 638.6 2125.5 648.1Q2135.6 657.6 2135.6 675.4Q2135.6 684.3 2133 691.2Q2130.4 698 2125.5 702.7Q2120.5 707.4 2113.3 709.9Q2106.2 712.4 2096.8 712.4ZM2082.8 701.3H2096Q2102.5 701.3 2107.3 699.6Q2112 698 2115.2 694.8Q2118.4 691.6 2120 686.8Q2121.5 681.9 2121.5 675.4Q2121.5 662.4 2115.2 656Q2108.8 649.6 2096 649.6H2082.8Z"/>
      <path class="aig-letra" data-letra="A" d="M2163.6 713.2Q2161.1 713.2 2159.6 712Q2158.1 710.9 2157.7 708.9Q2157.4 707 2158.5 704.6L2186.1 643.4Q2187.5 640.3 2189.4 639Q2191.3 637.7 2193.9 637.7Q2196.3 637.7 2198.2 639Q2200.1 640.3 2201.5 643.4L2229.2 704.6Q2230.4 707 2230.1 709Q2229.8 711 2228.3 712.1Q2226.8 713.2 2224.4 713.2Q2221.5 713.2 2219.9 711.8Q2218.2 710.4 2217 707.4L2211.8 695.3H2175.7L2170.6 707.4Q2169.3 710.5 2167.8 711.8Q2166.3 713.2 2163.6 713.2ZM2193.6 653.1 2180.4 684.6H2207.1L2193.9 653.1Z"/>
    </g>
    <g class="aig-palabra" data-palabra="PROPIEDAD">
      <path class="aig-letra" data-letra="P" d="M2326.5 713.2Q2323.3 713.2 2321.6 711.4Q2319.8 709.5 2319.8 706.3V645.4Q2319.8 642 2321.6 640.3Q2323.4 638.6 2326.6 638.6H2351.9Q2364 638.6 2370.6 644.6Q2377.2 650.7 2377.2 661.6Q2377.2 672.5 2370.6 678.6Q2364 684.7 2351.9 684.7H2333.2V706.3Q2333.2 709.5 2331.5 711.4Q2329.9 713.2 2326.5 713.2ZM2333.2 674.1H2349.8Q2356.9 674.1 2360.5 671Q2364.2 667.8 2364.2 661.6Q2364.2 655.4 2360.5 652.3Q2356.9 649.1 2349.8 649.1H2333.2Z"/>
      <path class="aig-letra" data-letra="R" d="M2419 713.2Q2415.7 713.2 2414 711.4Q2412.3 709.5 2412.3 706.3V645.4Q2412.3 642 2414 640.3Q2415.8 638.6 2419.1 638.6H2444.3Q2456.4 638.6 2463 644.4Q2469.6 650.2 2469.6 660.6Q2469.6 667.4 2466.6 672.4Q2463.7 677.3 2458 679.9Q2455.7 680.9 2453.1 681.6Q2454.8 682.1 2456.2 683Q2459.4 685.1 2461.8 689.6L2469.6 704.2Q2470.9 706.4 2470.8 708.5Q2470.7 710.6 2469.2 711.9Q2467.7 713.2 2464.9 713.2Q2462.1 713.2 2460.3 712Q2458.5 710.8 2457.2 708.3L2446.6 688.8Q2444.7 685.2 2442.1 684Q2439.6 682.8 2435.6 682.8H2425.7V706.3Q2425.7 709.5 2424 711.4Q2422.3 713.2 2419 713.2ZM2425.7 672.9H2442Q2449.2 672.9 2452.9 669.9Q2456.6 666.9 2456.6 661Q2456.6 655.1 2452.9 652.1Q2449.2 649.1 2442 649.1H2425.7Z"/>
      <path class="aig-letra" data-letra="O" d="M2541.3 713.4Q2530.7 713.4 2522.6 708.7Q2514.6 704 2510.2 695.4Q2505.8 686.9 2505.8 675.4Q2505.8 666.7 2508.4 659.8Q2510.9 652.8 2515.5 647.8Q2520.2 642.8 2526.7 640.2Q2533.3 637.5 2541.3 637.5Q2552.1 637.5 2560.1 642.2Q2568 646.8 2572.4 655.3Q2576.8 663.8 2576.8 675.3Q2576.8 684 2574.3 691Q2571.8 698 2567.1 703Q2562.5 708.1 2555.9 710.7Q2549.4 713.4 2541.3 713.4ZM2541.3 701.9Q2548.1 701.9 2552.9 698.7Q2557.7 695.6 2560.2 689.6Q2562.8 683.7 2562.8 675.4Q2562.8 662.8 2557.2 655.9Q2551.6 649 2541.3 649Q2534.6 649 2529.8 652.1Q2525 655.2 2522.4 661.1Q2519.9 667 2519.9 675.4Q2519.9 687.9 2525.5 694.9Q2531.2 701.9 2541.3 701.9Z"/>
      <path class="aig-letra" data-letra="P" d="M2623.6 713.2Q2620.4 713.2 2618.7 711.4Q2616.9 709.5 2616.9 706.3V645.4Q2616.9 642 2618.7 640.3Q2620.5 638.6 2623.7 638.6H2649Q2661.1 638.6 2667.7 644.6Q2674.3 650.7 2674.3 661.6Q2674.3 672.5 2667.7 678.6Q2661.1 684.7 2649 684.7H2630.3V706.3Q2630.3 709.5 2628.7 711.4Q2627 713.2 2623.6 713.2ZM2630.3 674.1H2646.9Q2654 674.1 2657.7 671Q2661.3 667.8 2661.3 661.6Q2661.3 655.4 2657.7 652.3Q2654 649.1 2646.9 649.1H2630.3Z"/>
      <path class="aig-letra" data-letra="I" d="M2716.1 713.2Q2712.8 713.2 2711.1 711.4Q2709.4 709.5 2709.4 706.3V644.6Q2709.4 641.3 2711.1 639.5Q2712.8 637.7 2716.1 637.7Q2719.3 637.7 2721.1 639.5Q2722.8 641.3 2722.8 644.6V706.3Q2722.8 709.5 2721.1 711.4Q2719.4 713.2 2716.1 713.2Z"/>
      <path class="aig-letra" data-letra="E" d="M2771.4 712.4Q2767.9 712.4 2766.1 710.5Q2764.3 708.7 2764.3 705.2V645.7Q2764.3 642.2 2766.1 640.4Q2767.9 638.6 2771.4 638.6H2808.7Q2811.4 638.6 2812.8 639.9Q2814.2 641.3 2814.2 643.8Q2814.2 646.4 2812.8 647.8Q2811.4 649.2 2808.7 649.2H2777.1V669.5H2806.4Q2809.2 669.5 2810.5 670.9Q2811.9 672.3 2811.9 674.9Q2811.9 677.5 2810.5 678.9Q2809.2 680.2 2806.4 680.2H2777.1V701.7H2808.7Q2811.4 701.7 2812.8 703Q2814.2 704.4 2814.2 707Q2814.2 709.6 2812.8 711Q2811.4 712.4 2808.7 712.4Z"/>
      <path class="aig-letra" data-letra="D" d="M2859.2 712.4Q2855.8 712.4 2853.9 710.5Q2852.1 708.7 2852.1 705.2V645.7Q2852.1 642.2 2853.9 640.4Q2855.8 638.6 2859.2 638.6H2879.5Q2898.1 638.6 2908.2 648.1Q2918.3 657.6 2918.3 675.4Q2918.3 684.3 2915.7 691.2Q2913.1 698 2908.2 702.7Q2903.2 707.4 2896 709.9Q2888.8 712.4 2879.5 712.4ZM2865.5 701.3H2878.7Q2885.2 701.3 2889.9 699.6Q2894.7 698 2897.9 694.8Q2901.1 691.6 2902.7 686.8Q2904.2 681.9 2904.2 675.4Q2904.2 662.4 2897.8 656Q2891.5 649.6 2878.7 649.6H2865.5Z"/>
      <path class="aig-letra" data-letra="A" d="M2947.5 713.2Q2944.9 713.2 2943.4 712Q2941.9 710.9 2941.6 708.9Q2941.3 707 2942.3 704.6L2970 643.4Q2971.3 640.3 2973.3 639Q2975.2 637.7 2977.7 637.7Q2980.1 637.7 2982 639Q2984 640.3 2985.3 643.4L3013.1 704.6Q3014.2 707 3013.9 709Q3013.6 711 3012.1 712.1Q3010.7 713.2 3008.3 713.2Q3005.3 713.2 3003.7 711.8Q3002.1 710.4 3000.8 707.4L2995.6 695.3H2959.6L2954.5 707.4Q2953.1 710.5 2951.6 711.8Q2950.2 713.2 2947.5 713.2ZM2977.5 653.1 2964.2 684.6H2991L2977.7 653.1Z"/>
      <path class="aig-letra" data-letra="D" d="M3055.9 712.4Q3052.5 712.4 3050.6 710.5Q3048.8 708.7 3048.8 705.2V645.7Q3048.8 642.2 3050.6 640.4Q3052.5 638.6 3055.9 638.6H3076.2Q3094.7 638.6 3104.8 648.1Q3114.9 657.6 3114.9 675.4Q3114.9 684.3 3112.4 691.2Q3109.8 698 3104.8 702.7Q3099.9 707.4 3092.7 709.9Q3085.5 712.4 3076.2 712.4ZM3062.2 701.3H3075.4Q3081.9 701.3 3086.6 699.6Q3091.4 698 3094.6 694.8Q3097.8 691.6 3099.3 686.8Q3100.9 681.9 3100.9 675.4Q3100.9 662.4 3094.5 656Q3088.1 649.6 3075.4 649.6H3062.2Z"/>
    </g>
    <g class="aig-palabra" data-palabra="CUENTA">
      <path class="aig-letra" data-letra="C" d="M3239.6 713.4Q3228.1 713.4 3219.9 708.7Q3211.7 704.1 3207.3 695.5Q3202.9 687 3202.9 675.4Q3202.9 666.7 3205.4 659.8Q3207.9 652.8 3212.6 647.8Q3217.3 642.8 3224.2 640.2Q3231 637.5 3239.6 637.5Q3245.4 637.5 3250.9 639Q3256.5 640.4 3260.7 643.2Q3262.9 644.5 3263.6 646.5Q3264.3 648.4 3263.9 650.2Q3263.5 652.1 3262.2 653.3Q3260.9 654.6 3258.9 654.7Q3257 654.9 3254.7 653.4Q3251.5 651.3 3247.7 650.4Q3243.9 649.4 3240 649.4Q3232.6 649.4 3227.5 652.5Q3222.4 655.5 3219.7 661.3Q3217.1 667 3217.1 675.4Q3217.1 683.7 3219.7 689.5Q3222.4 695.4 3227.5 698.4Q3232.6 701.5 3240 701.5Q3244 701.5 3247.9 700.5Q3251.8 699.5 3255.2 697.4Q3257.5 696 3259.4 696.2Q3261.2 696.3 3262.4 697.5Q3263.7 698.6 3264.1 700.4Q3264.5 702.1 3263.9 703.9Q3263.3 705.8 3261.4 707.1Q3257.2 710.2 3251.4 711.8Q3245.6 713.4 3239.6 713.4Z"/>
      <path class="aig-letra" data-letra="U" d="M3327.8 713.4Q3320.2 713.4 3314.4 711.4Q3308.6 709.4 3304.6 705.5Q3300.6 701.6 3298.6 695.7Q3296.6 689.8 3296.6 682.1V644.5Q3296.6 641.1 3298.4 639.4Q3300.1 637.7 3303.3 637.7Q3306.6 637.7 3308.3 639.4Q3310 641.1 3310 644.5V682Q3310 691.9 3314.6 696.9Q3319.1 701.9 3327.8 701.9Q3336.5 701.9 3341 696.9Q3345.5 691.9 3345.5 682V644.5Q3345.5 641.1 3347.2 639.4Q3349 637.7 3352.2 637.7Q3355.4 637.7 3357.1 639.4Q3358.8 641.1 3358.8 644.5V682.1Q3358.8 692.4 3355.3 699.4Q3351.8 706.4 3344.9 709.9Q3338 713.4 3327.8 713.4Z"/>
      <path class="aig-letra" data-letra="E" d="M3403.4 712.4Q3399.9 712.4 3398.1 710.5Q3396.3 708.7 3396.3 705.2V645.7Q3396.3 642.2 3398.1 640.4Q3399.9 638.6 3403.4 638.6H3440.8Q3443.4 638.6 3444.8 639.9Q3446.2 641.3 3446.2 643.8Q3446.2 646.4 3444.8 647.8Q3443.4 649.2 3440.8 649.2H3409.1V669.5H3438.4Q3441.2 669.5 3442.5 670.9Q3443.9 672.3 3443.9 674.9Q3443.9 677.5 3442.5 678.9Q3441.2 680.2 3438.4 680.2H3409.1V701.7H3440.8Q3443.4 701.7 3444.8 703Q3446.2 704.4 3446.2 707Q3446.2 709.6 3444.8 711Q3443.4 712.4 3440.8 712.4Z"/>
      <path class="aig-letra" data-letra="N" d="M3490.4 713.2Q3487.4 713.2 3485.7 711.5Q3484.1 709.8 3484.1 706.7V644.4Q3484.1 641.2 3485.7 639.4Q3487.4 637.7 3490 637.7Q3492.4 637.7 3493.6 638.6Q3494.8 639.5 3496.5 641.6L3533.8 690.1V644.1Q3533.8 641.1 3535.5 639.4Q3537.1 637.7 3540.1 637.7Q3543.1 637.7 3544.7 639.4Q3546.3 641.1 3546.3 644.1V706.9Q3546.3 709.8 3544.8 711.5Q3543.4 713.2 3540.8 713.2Q3538.4 713.2 3537 712.2Q3535.6 711.3 3533.9 709.2L3496.6 660.6V706.7Q3496.6 709.8 3495 711.5Q3493.4 713.2 3490.4 713.2Z"/>
      <path class="aig-letra" data-letra="T" d="M3609.9 713.2Q3606.7 713.2 3605 711.4Q3603.2 709.5 3603.2 706.3V649.8H3582.8Q3580.1 649.8 3578.6 648.2Q3577.1 646.7 3577.1 644.1Q3577.1 641.4 3578.6 640Q3580.1 638.6 3582.8 638.6H3637Q3639.8 638.6 3641.3 640Q3642.8 641.4 3642.8 644.1Q3642.8 646.7 3641.3 648.2Q3639.8 649.8 3637 649.8H3616.6V706.3Q3616.6 709.5 3614.9 711.4Q3613.3 713.2 3609.9 713.2Z"/>
      <path class="aig-letra" data-letra="A" d="M3670.7 713.2Q3668.2 713.2 3666.7 712Q3665.1 710.9 3664.8 708.9Q3664.5 707 3665.6 704.6L3693.2 643.4Q3694.6 640.3 3696.5 639Q3698.4 637.7 3700.9 637.7Q3703.3 637.7 3705.3 639Q3707.2 640.3 3708.6 643.4L3736.3 704.6Q3737.5 707 3737.2 709Q3736.8 711 3735.4 712.1Q3733.9 713.2 3731.5 713.2Q3728.6 713.2 3727 711.8Q3725.3 710.4 3724.1 707.4L3718.8 695.3H3682.8L3677.7 707.4Q3676.3 710.5 3674.9 711.8Q3673.4 713.2 3670.7 713.2ZM3700.7 653.1 3687.4 684.6H3714.2L3700.9 653.1Z"/>
    </g>
    <g class="aig-palabra" data-palabra="UNA">
      <path class="aig-letra" data-letra="U" d="M3855.2 713.4Q3847.6 713.4 3841.8 711.4Q3836 709.4 3832 705.5Q3828 701.6 3826 695.7Q3824.1 689.8 3824.1 682.1V644.5Q3824.1 641.1 3825.8 639.4Q3827.5 637.7 3830.8 637.7Q3834 637.7 3835.7 639.4Q3837.5 641.1 3837.5 644.5V682Q3837.5 691.9 3842 696.9Q3846.6 701.9 3855.2 701.9Q3863.9 701.9 3868.4 696.9Q3872.9 691.9 3872.9 682V644.5Q3872.9 641.1 3874.7 639.4Q3876.4 637.7 3879.6 637.7Q3882.8 637.7 3884.5 639.4Q3886.2 641.1 3886.2 644.5V682.1Q3886.2 692.4 3882.7 699.4Q3879.2 706.4 3872.3 709.9Q3865.4 713.4 3855.2 713.4Z"/>
      <path class="aig-letra" data-letra="N" d="M3927.6 713.2Q3924.6 713.2 3923 711.5Q3921.3 709.8 3921.3 706.7V644.4Q3921.3 641.2 3923 639.4Q3924.6 637.7 3927.2 637.7Q3929.6 637.7 3930.8 638.6Q3932 639.5 3933.7 641.6L3971.1 690.1V644.1Q3971.1 641.1 3972.7 639.4Q3974.3 637.7 3977.4 637.7Q3980.4 637.7 3982 639.4Q3983.5 641.1 3983.5 644.1V706.9Q3983.5 709.8 3982.1 711.5Q3980.6 713.2 3978.1 713.2Q3975.7 713.2 3974.3 712.2Q3972.9 711.3 3971.2 709.2L3933.8 660.6V706.7Q3933.8 709.8 3932.2 711.5Q3930.7 713.2 3927.6 713.2Z"/>
      <path class="aig-letra" data-letra="A" d="M4024.6 713.2Q4022.1 713.2 4020.5 712Q4019 710.9 4018.7 708.9Q4018.4 707 4019.4 704.6L4047.1 643.4Q4048.4 640.3 4050.4 639Q4052.3 637.7 4054.8 637.7Q4057.2 637.7 4059.2 639Q4061.1 640.3 4062.5 643.4L4090.2 704.6Q4091.4 707 4091 709Q4090.7 711 4089.3 712.1Q4087.8 713.2 4085.4 713.2Q4082.5 713.2 4080.8 711.8Q4079.2 710.4 4078 707.4L4072.7 695.3H4036.7L4031.6 707.4Q4030.2 710.5 4028.8 711.8Q4027.3 713.2 4024.6 713.2ZM4054.6 653.1 4041.3 684.6H4068.1L4054.8 653.1Z"/>
    </g>
    <g class="aig-palabra" data-palabra="HISTORIA">
      <path class="aig-letra" data-letra="H" d="M4184 713.2Q4180.7 713.2 4179 711.4Q4177.3 709.5 4177.3 706.3V644.6Q4177.3 641.3 4179 639.5Q4180.7 637.7 4184 637.7Q4187.2 637.7 4189 639.5Q4190.7 641.3 4190.7 644.6V669.3H4228.7V644.6Q4228.7 641.3 4230.4 639.5Q4232.1 637.7 4235.4 637.7Q4238.6 637.7 4240.4 639.5Q4242.1 641.3 4242.1 644.6V706.3Q4242.1 709.5 4240.4 711.4Q4238.6 713.2 4235.4 713.2Q4232.1 713.2 4230.4 711.4Q4228.7 709.5 4228.7 706.3V680.5H4190.7V706.3Q4190.7 709.5 4189 711.4Q4187.3 713.2 4184 713.2Z"/>
      <path class="aig-letra" data-letra="I" d="M4286.8 713.2Q4283.5 713.2 4281.8 711.4Q4280.1 709.5 4280.1 706.3V644.6Q4280.1 641.3 4281.8 639.5Q4283.5 637.7 4286.8 637.7Q4290 637.7 4291.7 639.5Q4293.5 641.3 4293.5 644.6V706.3Q4293.5 709.5 4291.8 711.4Q4290.1 713.2 4286.8 713.2Z"/>
      <path class="aig-letra" data-letra="S" d="M4362.7 713.4Q4358.1 713.4 4353.5 712.7Q4348.9 712 4344.8 710.6Q4340.7 709.2 4337.5 707.1Q4335.6 705.9 4334.9 704.1Q4334.1 702.3 4334.4 700.6Q4334.6 698.8 4335.7 697.5Q4336.8 696.2 4338.5 695.9Q4340.2 695.6 4342.2 696.9Q4346.8 699.6 4351.9 700.8Q4357 702.1 4362.7 702.1Q4371 702.1 4374.7 699.3Q4378.5 696.5 4378.5 692.1Q4378.5 688.5 4375.8 686.4Q4373.2 684.3 4366.7 682.9L4355.2 680.5Q4345.2 678.4 4340.4 673.5Q4335.5 668.5 4335.5 660.3Q4335.5 655.2 4337.6 651Q4339.7 646.8 4343.5 643.8Q4347.3 640.8 4352.6 639.1Q4357.9 637.5 4364.3 637.5Q4370.6 637.5 4376.2 639.1Q4381.9 640.6 4386.4 643.7Q4388 644.8 4388.6 646.5Q4389.2 648.2 4388.9 649.8Q4388.6 651.4 4387.4 652.6Q4386.3 653.7 4384.5 653.9Q4382.8 654.2 4380.6 652.9Q4376.7 650.7 4372.7 649.8Q4368.8 648.8 4364.2 648.8Q4359.3 648.8 4355.9 650.2Q4352.4 651.5 4350.6 654Q4348.8 656.5 4348.8 659.8Q4348.8 663.6 4351.3 665.8Q4353.8 668.1 4359.9 669.3L4371.3 671.7Q4381.6 673.9 4386.7 678.6Q4391.8 683.4 4391.8 691.2Q4391.8 696.2 4389.8 700.3Q4387.7 704.4 4383.9 707.3Q4380.1 710.3 4374.7 711.8Q4369.4 713.4 4362.7 713.4Z"/>
      <path class="aig-letra" data-letra="T" d="M4448.5 713.2Q4445.3 713.2 4443.5 711.4Q4441.8 709.5 4441.8 706.3V649.8H4421.4Q4418.7 649.8 4417.1 648.2Q4415.6 646.7 4415.6 644.1Q4415.6 641.4 4417.1 640Q4418.7 638.6 4421.4 638.6H4475.6Q4478.3 638.6 4479.8 640Q4481.4 641.4 4481.4 644.1Q4481.4 646.7 4479.8 648.2Q4478.3 649.8 4475.6 649.8H4455.2V706.3Q4455.2 709.5 4453.5 711.4Q4451.8 713.2 4448.5 713.2Z"/>
      <path class="aig-letra" data-letra="O" d="M4545.1 713.4Q4534.4 713.4 4526.4 708.7Q4518.4 704 4514 695.4Q4509.6 686.9 4509.6 675.4Q4509.6 666.7 4512.1 659.8Q4514.6 652.8 4519.3 647.8Q4524 642.8 4530.5 640.2Q4537 637.5 4545.1 637.5Q4555.9 637.5 4563.8 642.2Q4571.8 646.8 4576.2 655.3Q4580.6 663.8 4580.6 675.3Q4580.6 684 4578.1 691Q4575.6 698 4570.9 703Q4566.2 708.1 4559.7 710.7Q4553.2 713.4 4545.1 713.4ZM4545.1 701.9Q4551.9 701.9 4556.7 698.7Q4561.4 695.6 4564 689.6Q4566.6 683.7 4566.6 675.4Q4566.6 662.8 4561 655.9Q4555.4 649 4545.1 649Q4538.4 649 4533.6 652.1Q4528.8 655.2 4526.2 661.1Q4523.6 667 4523.6 675.4Q4523.6 687.9 4529.3 694.9Q4535 701.9 4545.1 701.9Z"/>
      <path class="aig-letra" data-letra="R" d="M4627.4 713.2Q4624.2 713.2 4622.4 711.4Q4620.7 709.5 4620.7 706.3V645.4Q4620.7 642 4622.5 640.3Q4624.3 638.6 4627.5 638.6H4652.7Q4664.9 638.6 4671.5 644.4Q4678.1 650.2 4678.1 660.6Q4678.1 667.4 4675.1 672.4Q4672.1 677.3 4666.5 679.9Q4664.2 680.9 4661.5 681.6Q4663.2 682.1 4664.7 683Q4667.8 685.1 4670.2 689.6L4678.1 704.2Q4679.3 706.4 4679.2 708.5Q4679.1 710.6 4677.7 711.9Q4676.2 713.2 4673.4 713.2Q4670.5 713.2 4668.8 712Q4667 710.8 4665.6 708.3L4655.1 688.8Q4653.2 685.2 4650.6 684Q4648 682.8 4644.1 682.8H4634.1V706.3Q4634.1 709.5 4632.4 711.4Q4630.8 713.2 4627.4 713.2ZM4634.1 672.9H4650.4Q4657.7 672.9 4661.4 669.9Q4665.1 666.9 4665.1 661Q4665.1 655.1 4661.4 652.1Q4657.7 649.1 4650.4 649.1H4634.1Z"/>
      <path class="aig-letra" data-letra="I" d="M4721.1 713.2Q4717.8 713.2 4716.1 711.4Q4714.4 709.5 4714.4 706.3V644.6Q4714.4 641.3 4716.1 639.5Q4717.8 637.7 4721.1 637.7Q4724.3 637.7 4726.1 639.5Q4727.8 641.3 4727.8 644.6V706.3Q4727.8 709.5 4726.1 711.4Q4724.4 713.2 4721.1 713.2Z"/>
      <path class="aig-letra" data-letra="A" d="M4771.2 713.2Q4768.6 713.2 4767.1 712Q4765.6 710.9 4765.3 708.9Q4765 707 4766 704.6L4793.7 643.4Q4795 640.3 4797 639Q4798.9 637.7 4801.4 637.7Q4803.8 637.7 4805.7 639Q4807.7 640.3 4809 643.4L4836.8 704.6Q4837.9 707 4837.6 709Q4837.3 711 4835.8 712.1Q4834.4 713.2 4832 713.2Q4829 713.2 4827.4 711.8Q4825.8 710.4 4824.5 707.4L4819.3 695.3H4783.3L4778.2 707.4Q4776.8 710.5 4775.3 711.8Q4773.9 713.2 4771.2 713.2ZM4801.2 653.1 4787.9 684.6H4814.7L4801.4 653.1Z"/>
    </g>
  </g>
</svg>
